<svg width="36" height="36" viewBox="0 0 36 36" fill="none" xmlns="http://www.w3.org/2000/svg">
<g clip-path="url(#clip0_82_808)">
<path d="M32 5H4C2.93913 5 1.92172 5.42143 1.17157 6.17157C0.421427 6.92172 0 7.93913 0 9L0 27C0 28.0609 0.421427 29.0783 1.17157 29.8284C1.92172 30.5786 2.93913 31 4 31H32C33.0609 31 34.0783 30.5786 34.8284 29.8284C35.5786 29.0783 36 28.0609 36 27V9C36 7.93913 35.5786 6.92172 34.8284 6.17157C34.0783 5.42143 33.0609 5 32 5Z" fill="#006C35"/>
<path d="M8.91899 14.05C9.55099 14.11 9.20199 12.981 9.43099 12.776C9.47399 12.675 9.55399 12.674 9.55999 12.802V13.76C9.55399 14.072 9.75899 14.163 9.91799 14.228C10.084 14.215 10.194 14.221 10.259 14.382L10.337 16.04C10.337 16.04 10.721 16.15 10.739 15.107C10.758 14.495 10.617 13.983 10.7 13.864C10.703 13.747 10.852 13.74 10.956 13.797C11.121 13.913 11.195 14.057 11.451 14C11.842 13.893 12.076 13.703 12.082 13.403C12.059 13.118 12.027 12.833 11.904 12.548C11.921 12.496 11.829 12.362 11.846 12.31C11.916 12.42 12.023 12.411 12.047 12.31C11.981 12.091 11.878 11.881 11.71 11.79C11.572 11.668 11.37 11.693 11.296 11.947C11.262 12.239 11.402 12.587 11.614 12.87C11.659 12.981 11.723 13.165 11.695 13.331C11.582 13.395 11.468 13.369 11.374 13.269C11.374 13.269 11.063 13.036 11.063 12.984C11.146 12.456 11.082 12.396 11.036 12.25C11.004 12.048 10.908 11.983 10.83 11.845C10.752 11.763 10.647 11.763 10.597 11.845C10.459 12.083 10.523 12.595 10.623 12.824C10.694 13.034 10.804 13.167 10.752 13.167C10.709 13.286 10.621 13.258 10.557 13.121C10.465 12.837 10.447 12.414 10.447 12.223C10.419 11.987 10.389 11.482 10.234 11.354C10.139 11.225 9.99799 11.287 9.94899 11.406C9.93899 11.64 9.93699 11.875 9.96399 12.092C10.07 12.471 10.104 12.805 10.156 13.194C10.17 13.715 9.85499 13.42 9.86899 13.162C9.94199 12.827 9.92299 12.299 9.85799 12.165C9.80699 12.032 9.74599 11.998 9.62199 12.02C9.52399 12.012 9.26999 12.29 9.19799 12.75C9.19799 12.75 9.13699 12.987 9.11099 13.198C9.07599 13.436 8.91999 13.604 8.80999 13.165C8.71499 12.846 8.65699 12.059 8.49799 12.243C8.45199 12.858 8.39699 13.94 8.91899 14.05Z" fill="white"/>
<path d="M9.86999 14.499C9.34999 14.509 8.58899 15.182 8.56799 15.555C9.11599 15.291 9.65499 15.037 10.213 14.765C10.123 14.63 10.208 14.509 9.86999 14.499Z" fill="white"/>
<path d="M12.737 16.516C12.978 15.713 12.698 15.121 12.829 15.124C13.106 15.423 13.494 15.164 13.579 15.06C13.616 15.008 13.707 14.974 13.771 15.042C13.988 15.198 14.37 15.124 14.449 14.85C14.4989 14.5748 14.5297 14.2965 14.541 14.017C14.364 14.072 14.232 14.109 14.22 14.182L14.183 14.42C14.168 14.497 14.015 14.5 14.009 14.402C13.942 14.097 13.664 14.057 13.496 14.53C13.383 14.622 13.179 14.64 13.157 14.503C13.184 14.186 13.056 14.143 12.8 14.292C12.718 13.663 12.635 13.062 12.553 12.433C12.66 12.43 12.758 12.509 12.855 12.387C12.748 12.054 12.522 11.374 12.397 11.325C12.336 11.251 12.284 11.297 12.205 11.316C12.071 11.359 11.946 11.475 11.985 11.7C12.144 12.665 12.248 13.4 12.406 14.365C12.43 14.478 12.336 14.627 12.214 14.612C12.007 14.472 11.955 14.188 11.601 14.2C11.344 14.203 11.051 14.481 11.015 14.75C10.972 14.963 10.957 15.195 11.015 15.382C11.195 15.598 11.412 15.577 11.601 15.528C11.756 15.464 11.885 15.308 11.939 15.345C11.976 15.39 11.948 15.903 11.207 16.297C10.758 16.498 10.401 16.544 10.209 16.178C10.09 15.949 10.218 15.079 9.92499 15.281C9.05799 17.516 11.955 17.826 12.279 15.373C12.31 15.272 12.432 15.171 12.453 15.336C12.386 17.558 10.212 17.711 9.84299 17.012C9.75099 16.847 9.72399 16.481 9.71499 16.261C9.65999 15.824 9.43099 15.992 9.39499 16.425C9.35799 16.666 9.36799 16.734 9.36799 16.965C9.48299 18.72 12.283 17.966 12.737 16.516ZM11.657 14.998C11.639 15.032 11.56 15.018 11.502 15.018C11.436 15.015 11.405 15.004 11.365 14.951C11.347 14.891 11.403 14.834 11.428 14.789C11.459 14.736 11.626 14.681 11.685 14.829C11.6959 14.8571 11.6991 14.8876 11.6941 14.9173C11.6892 14.9471 11.6764 14.9749 11.657 14.998Z" fill="white"/>
<path d="M13.602 13.009C13.776 12.945 14.601 12.002 14.601 12.002C14.558 11.965 14.52 11.938 14.477 11.901C14.431 11.861 14.436 11.821 14.477 11.782C14.681 11.663 14.616 11.402 14.509 11.283C14.4398 11.2491 14.3636 11.2317 14.2865 11.2324C14.2094 11.2331 14.1336 11.2518 14.065 11.287C13.922 11.424 13.888 11.644 14.001 11.782C14.111 11.834 14.221 11.945 14.148 12.006C13.811 12.366 12.887 12.987 12.994 13.009C13.017 13.039 13.584 13.038 13.602 13.009ZM14.213 11.528C14.266 11.515 14.334 11.562 14.366 11.632C14.398 11.702 14.381 11.769 14.329 11.782H14.327C14.275 11.795 14.207 11.748 14.175 11.678C14.144 11.607 14.161 11.541 14.213 11.528ZM8.86199 17.258C8.72599 17.535 8.66899 17.345 8.65699 17.19C8.64136 16.9297 8.65444 16.6685 8.69599 16.411C8.72999 16.191 8.69599 16.258 8.62599 16.347C8.31699 16.839 8.28999 17.575 8.46099 17.794C8.55099 17.898 8.69999 17.944 8.81099 17.91C9.00499 17.826 9.08999 17.432 9.04399 17.289C8.97799 17.188 8.92699 17.172 8.86199 17.258ZM19.043 12.05C19.399 12.528 19.737 13.015 20.068 13.511C20.133 13.941 20.18 14.361 20.208 14.778C20.263 15.582 20.279 16.452 20.229 17.299C20.379 17.305 20.622 17.055 20.706 16.69C20.761 16.185 20.686 15.286 20.681 14.988C20.6744 14.8012 20.6654 14.6145 20.654 14.428C21.048 15.072 21.432 15.746 21.807 16.495C21.944 16.431 21.914 15.665 21.834 15.557C21.534 14.914 21.121 14.278 20.989 14.034C20.94 13.944 20.773 13.688 20.574 13.395C20.5569 13.1612 20.5289 12.9282 20.49 12.697C20.428 12.269 20.667 12.744 20.634 12.495C20.557 12.067 20.319 11.778 20.041 11.386C19.951 11.259 19.954 11.233 19.815 11.417C19.7659 11.5272 19.7432 11.6475 19.749 11.768C19.7056 11.7042 19.6592 11.6425 19.61 11.583C19.4591 11.4528 19.3074 11.3235 19.155 11.195C19.054 11.123 18.808 10.993 18.764 11.209C18.7435 11.3604 18.751 11.5143 18.786 11.663C18.812 11.77 18.967 11.948 19.043 12.05ZM19.783 12.026C19.802 12.109 19.822 12.192 19.835 12.277L19.85 12.358C19.808 12.2994 19.7644 12.242 19.719 12.186C19.555 11.992 19.691 12.034 19.783 12.026Z" fill="white"/>
<path d="M21.919 16.693C21.571 17.056 21.069 17.503 20.523 17.71C20.464 17.776 20.669 18.059 20.933 18.059C21.376 18.007 21.766 17.758 22.127 17.103C22.224 16.951 22.394 16.624 22.398 16.37C22.431 14.884 22.324 13.727 22.101 12.653C22.0861 12.5668 22.0902 12.4784 22.113 12.394C22.141 12.36 22.239 12.394 22.291 12.31C22.366 12.232 22.09 11.592 21.932 11.346C21.876 11.236 21.857 11.162 21.764 11.359C21.666 11.519 21.601 11.798 21.609 12.058C21.82 13.521 21.885 14.802 22.023 16.265C22.034 16.406 22.013 16.612 21.919 16.693ZM27.749 12.983C27.734 12.879 27.688 12.637 27.706 12.606C27.734 12.532 27.879 12.614 27.931 12.529C28.007 12.452 27.557 11.874 27.4 11.628C27.343 11.518 27.324 11.444 27.231 11.641C27.133 11.801 27.099 12.088 27.138 12.34C27.373 13.929 27.548 15.123 27.584 16.532C27.563 16.666 27.559 16.738 27.496 16.906C27.357 17.084 27.204 17.306 27.059 17.414C26.915 17.521 26.608 17.624 26.507 17.703C26.19 17.888 26.189 18.099 26.447 18.106C26.889 18.054 27.413 18.018 27.774 17.472C27.871 17.32 27.986 16.907 27.991 16.653C28.024 15.167 27.972 14.057 27.749 12.983ZM24.398 14.22C24.402 14.016 24.421 13.746 24.432 13.577C24.437 13.514 24.452 13.443 24.512 13.427C24.573 13.411 24.681 13.489 24.682 13.423C24.67 13.294 24.644 13.102 24.571 13.011C24.471 12.863 24.206 12.899 24.159 13.131C24.16 13.217 24.199 13.263 24.192 13.341C24.18 13.385 24.134 13.415 24.025 13.363C24.043 13.347 23.954 13.224 23.954 13.224C23.869 13.172 23.755 13.227 23.682 13.274C23.6556 13.3244 23.6398 13.3797 23.6357 13.4365C23.6316 13.4933 23.6392 13.5503 23.658 13.604C23.778 13.831 24.197 14.216 24.398 14.22Z" fill="white"/>
<path d="M24.257 12.481C24.55 12.84 24.849 13.204 25.15 13.574C25.215 14.4 25.232 15.076 25.296 15.902C25.287 16.252 25.179 16.557 25.076 16.601C25.076 16.601 24.921 16.691 24.817 16.592C24.741 16.561 24.438 16.087 24.438 16.087C24.283 15.945 24.181 15.985 24.071 16.087C23.767 16.38 23.63 16.93 23.424 17.308C23.37 17.393 23.22 17.465 23.053 17.302C22.63 16.723 22.878 15.9 22.826 16.112C22.449 16.537 22.615 17.24 22.7 17.392C22.824 17.64 22.925 17.8 23.167 17.923C23.387 18.085 23.559 17.983 23.653 17.87C23.875 17.639 23.878 17.054 23.982 16.936C24.054 16.723 24.239 16.759 24.328 16.854C24.4095 16.969 24.5176 17.0627 24.643 17.127C24.85 17.31 25.097 17.343 25.34 17.176C25.506 17.083 25.615 16.962 25.712 16.723C25.82 16.435 25.761 15.111 25.739 14.317C25.894 14.517 26.045 14.726 26.198 14.935C26.265 15.598 26.303 16.258 26.281 16.932C26.265 17.067 26.751 16.532 26.747 16.278C26.745 16.073 26.747 15.887 26.747 15.712C26.981 16.064 27.209 16.427 27.423 16.811C27.557 16.741 27.513 15.986 27.428 15.882C27.181 15.468 26.852 15.037 26.625 14.729C26.61 14.69 26.602 14.646 26.584 14.609C26.493 14.398 26.55 14.228 26.507 14.004C26.465 13.779 26.476 13.443 26.411 13.176C26.393 13.072 26.339 12.738 26.355 12.707C26.381 12.632 26.481 12.709 26.53 12.623C26.603 12.543 26.277 11.698 26.111 11.456C26.051 11.348 25.943 11.385 25.809 11.561C25.686 11.677 25.732 11.941 25.779 12.192C25.896 12.8 25.994 13.383 26.078 13.96C25.8982 13.7209 25.7165 13.4833 25.533 13.247L25.525 13.203C25.525 13.192 25.498 12.679 25.474 12.557C25.47 12.508 25.458 12.493 25.51 12.499C25.565 12.545 25.572 12.548 25.607 12.564C25.663 12.574 25.712 12.479 25.679 12.392L25.162 11.44C25.121 11.399 25.067 11.355 25.002 11.451C24.9616 11.4863 24.9293 11.5298 24.9072 11.5786C24.8851 11.6274 24.8738 11.6804 24.874 11.734C24.89 11.959 24.929 12.189 24.944 12.415L24.966 12.537C24.943 12.51 24.915 12.476 24.903 12.464C24.464 12.002 25.105 12.389 24.819 12.032C24.577 11.766 24.507 11.683 24.299 11.523C24.195 11.456 24.132 11.328 24.098 11.546C24.0809 11.7372 24.0759 11.9292 24.083 12.121C24.083 12.213 24.176 12.381 24.257 12.481ZM15.356 13.56C15.608 13.664 15.769 13.184 15.873 12.658C15.943 12.51 15.997 12.494 16.033 12.57C16.024 13.27 16.083 13.425 16.263 13.638C16.664 13.948 16.996 13.677 17.023 13.651L17.335 13.339C17.404 13.266 17.497 13.261 17.595 13.326C17.691 13.412 17.678 13.562 17.882 13.666C18.054 13.735 18.422 13.682 18.507 13.534C18.622 13.338 18.65 13.27 18.702 13.196C18.784 13.087 18.924 13.136 18.924 13.17C18.911 13.231 18.829 13.292 18.885 13.401C18.983 13.474 19.005 13.427 19.063 13.411C19.267 13.313 19.419 12.871 19.419 12.871C19.428 12.706 19.336 12.72 19.276 12.754C19.198 12.801 19.193 12.817 19.115 12.865C19.015 12.88 18.822 12.946 18.727 12.798C18.629 12.62 18.627 12.372 18.553 12.193C18.553 12.18 18.423 11.91 18.544 11.893C18.605 11.904 18.734 11.938 18.755 11.83C18.818 11.724 18.618 11.422 18.482 11.269C18.363 11.139 18.198 11.123 18.039 11.256C17.927 11.359 17.943 11.473 17.921 11.582C17.9028 11.6589 17.9029 11.739 17.9211 11.8159C17.9393 11.8928 17.9752 11.9644 18.026 12.025C18.137 12.244 18.34 12.527 18.273 12.923C18.273 12.923 18.155 13.111 17.948 13.087C17.862 13.068 17.722 13.031 17.648 12.481C17.592 12.064 17.662 11.481 17.485 11.208C17.421 11.043 17.375 10.884 17.219 11.166C17.177 11.277 16.997 11.445 17.128 11.792C17.235 12.011 17.278 12.368 17.23 12.766C17.156 12.879 17.14 12.917 17.043 13.03C16.907 13.176 16.76 13.139 16.647 13.084C16.541 13.013 16.459 12.976 16.411 12.75C16.42 12.39 16.44 11.8 16.374 11.675C16.277 11.481 16.117 11.551 16.048 11.61C15.719 11.911 15.557 12.418 15.458 12.821C15.367 13.115 15.27 13.031 15.202 12.912C15.036 12.756 15.025 11.539 14.824 11.74C14.501 12.654 15.006 13.658 15.356 13.56Z" fill="white"/>
<path d="M20.137 15.524L20.041 15.469L18.16 15.46C18.063 15.423 18.092 15.391 18.16 15.365C18.609 15.304 19.408 15.174 19.461 14.407C19.452 14.008 19.289 13.746 18.799 13.674C18.44 13.702 18.183 14.051 18.224 14.434C18.207 14.538 18.258 14.74 18.153 14.763C17.462 14.826 16.709 15.258 16.684 15.568C16.642 15.597 16.548 15.513 16.56 15.381C16.5267 14.8164 16.3642 14.2669 16.085 13.775C15.867 13.557 15.935 13.629 15.789 13.732C15.695 13.84 15.678 13.914 15.683 14.129C15.683 14.137 15.859 14.628 16.008 14.972C16.107 15.325 16.2 15.728 16.133 16.109C15.901 16.613 15.434 17.065 14.984 17.31C14.752 17.385 14.553 17.358 14.504 17.306C14.361 17.21 14.368 17.033 14.379 17.03C14.758 16.765 15.192 16.552 15.532 15.839C15.632 15.567 15.662 15.402 15.563 14.981C15.5355 14.8326 15.4673 14.6949 15.366 14.583C15.427 14.543 15.602 14.676 15.629 14.597C15.5783 14.3666 15.4636 14.1551 15.298 13.987C15.163 13.864 15.016 13.85 14.892 13.963C14.752 14.041 14.722 14.319 14.789 14.563C14.863 14.747 15.064 14.778 15.208 15.147C15.208 15.155 15.26 15.423 15.186 15.528C15.127 15.712 14.362 16.313 14.32 16.34C14.299 16.366 14.308 16.327 14.305 16.227C14.3 16.105 14.354 15.817 14.339 15.815C14.09 15.976 14.007 16.469 13.962 16.615C13.332 17.05 12.619 17.374 12.207 17.816C11.992 18.151 13.685 17.431 13.882 17.344C13.926 17.376 13.921 17.527 14.039 17.662C14.215 17.9 14.587 18.047 14.952 17.956C15.562 17.735 15.915 17.319 16.273 16.858C16.324 16.783 16.404 16.726 16.478 16.783C16.724 17.334 17.435 17.724 18.352 17.765C18.565 17.506 18.462 17.381 18.376 17.327C18.376 17.319 17.923 17.147 17.854 16.975C17.812 16.819 17.914 16.682 18.118 16.578C18.707 16.507 19.286 16.428 19.847 16.248C19.853 16.06 19.962 15.778 20.037 15.656C20.109 15.532 20.148 15.569 20.137 15.524ZM18.59 14.352C18.618 14.305 18.711 14.307 18.798 14.358C18.885 14.408 18.934 14.488 18.905 14.535C18.877 14.583 18.783 14.58 18.696 14.529C18.609 14.479 18.562 14.4 18.59 14.352ZM17.833 16.252C17.631 16.321 17.437 16.375 17.437 16.667C17.512 17.073 17.334 16.934 17.229 16.878C17.105 16.789 16.756 16.574 16.706 16.11C16.698 15.999 16.785 15.906 16.924 15.906C17.133 15.963 17.442 15.967 17.71 15.995C17.929 16.009 18.038 16.181 17.833 16.252ZM10.866 11.747C11.082 11.851 11.49 11.807 11.472 11.457C11.472 11.426 11.464 11.322 11.461 11.294C11.417 11.191 11.297 11.216 11.269 11.323C11.26 11.358 11.284 11.414 11.253 11.432C11.235 11.45 11.166 11.439 11.169 11.343C11.169 11.312 11.146 11.279 11.133 11.26C11.119 11.251 11.111 11.248 11.086 11.248C11.056 11.249 11.056 11.257 11.04 11.283C11.033 11.308 11.023 11.334 11.023 11.363C11.019 11.397 11.006 11.409 10.981 11.415C10.953 11.415 10.959 11.418 10.937 11.403C10.923 11.388 10.906 11.382 10.906 11.357C10.9059 11.3278 10.9012 11.2988 10.892 11.271C10.88 11.255 10.861 11.248 10.839 11.242C10.721 11.242 10.713 11.377 10.72 11.429C10.709 11.438 10.705 11.68 10.866 11.747Z" fill="white"/>
<path d="M17.512 14.027C17.512 13.996 17.489 13.964 17.476 13.944C17.462 13.935 17.454 13.932 17.429 13.932C17.399 13.933 17.4 13.941 17.383 13.967C17.376 13.993 17.366 14.018 17.366 14.047C17.363 14.082 17.349 14.094 17.324 14.099C17.296 14.099 17.302 14.102 17.279 14.088C17.265 14.073 17.248 14.067 17.248 14.042C17.248 14.0128 17.2433 13.9837 17.234 13.956C17.222 13.94 17.203 13.933 17.181 13.928C17.063 13.928 17.055 14.063 17.061 14.114C17.052 14.124 17.047 14.365 17.208 14.433C17.425 14.536 17.94 14.476 17.814 14.143C17.8119 14.0882 17.8082 14.0336 17.803 13.979C17.759 13.876 17.638 13.902 17.611 14.008C17.603 14.043 17.627 14.099 17.595 14.117C17.579 14.135 17.509 14.124 17.512 14.027ZM20.909 13.32C21.125 13.424 21.532 13.38 21.514 13.031C21.5119 12.9762 21.5082 12.9216 21.503 12.867C21.459 12.764 21.339 12.79 21.312 12.896C21.303 12.931 21.327 12.987 21.295 13.005C21.277 13.023 21.208 13.013 21.211 12.916C21.211 12.885 21.188 12.852 21.175 12.833C21.161 12.824 21.153 12.821 21.127 12.821C21.097 12.823 21.098 12.83 21.081 12.856C21.074 12.882 21.064 12.907 21.064 12.936C21.06 12.971 21.047 12.983 21.022 12.988C20.994 12.988 21 12.991 20.977 12.977C20.963 12.962 20.947 12.956 20.947 12.931C20.9469 12.9015 20.9422 12.8721 20.933 12.844C20.92 12.828 20.902 12.821 20.879 12.816C20.761 12.816 20.753 12.951 20.76 13.002C20.753 13.012 20.748 13.253 20.909 13.32ZM21.055 11.968C21.132 12.184 20.996 12.39 21.077 12.42C21.15 12.454 21.254 12.197 21.292 11.96C21.337 11.768 21.2 11.375 21.006 11.294C20.888 11.266 20.72 11.336 20.774 11.494C20.747 11.57 21.012 11.828 21.055 11.968ZM23.05 17.032C23.201 17.033 23.375 16.687 23.449 16.344C23.49 15.872 23.421 15.585 23.409 15.307C23.396 15.03 23.096 12.915 23.034 12.705C22.961 12.308 23.327 12.652 23.287 12.421C23.16 12.13 22.845 11.707 22.745 11.454C22.685 11.346 22.711 11.25 22.577 11.426C22.454 11.831 22.411 12.161 22.458 12.413C22.776 14.073 23.102 15.453 23.05 17.032ZM26.806 12.692C26.841 12.8 26.753 13.149 26.826 13.181C26.893 13.217 26.987 12.94 27.022 12.683C27.041 12.542 26.938 12.05 26.761 11.962C26.653 11.932 26.5 12.007 26.55 12.179C26.525 12.262 26.767 12.54 26.806 12.692ZM13.687 16.348C13.752 16.375 13.841 16.171 13.875 15.982C13.894 15.878 13.794 15.517 13.625 15.452C13.521 15.43 13.379 15.458 13.423 15.612C13.418 15.695 13.653 15.795 13.667 15.988C13.701 16.068 13.617 16.325 13.687 16.348ZM9.13098 11.733C9.16398 11.816 9.09798 12.081 9.16698 12.106C9.22998 12.134 9.31898 11.922 9.35198 11.727C9.37098 11.619 9.35598 11.253 9.10598 11.178C9.00298 11.155 8.85998 11.212 8.90698 11.343C8.88298 11.405 9.09398 11.617 9.13098 11.733ZM14.033 12.906C13.842 13.01 13.767 13.318 13.887 13.497C13.998 13.656 14.174 13.597 14.198 13.597C14.386 13.62 14.497 13.245 14.497 13.245C14.497 13.245 14.503 13.14 14.28 13.339C14.186 13.357 14.174 13.322 14.151 13.268C14.1282 13.1701 14.1384 13.0675 14.18 12.976C14.212 12.883 14.14 12.842 14.033 12.906ZM15.475 11.753C15.5058 11.734 15.5322 11.7086 15.5526 11.6786C15.5729 11.6486 15.5867 11.6147 15.593 11.579C15.622 11.433 15.438 11.648 15.415 11.485C15.374 11.334 15.492 11.272 15.604 11.126C15.608 11.025 15.606 10.954 15.469 11.036C15.373 11.101 15.181 11.299 15.175 11.527C15.169 11.656 15.145 11.655 15.23 11.737C15.291 11.826 15.352 11.817 15.475 11.753ZM16.774 11.831C16.898 11.495 16.898 11.353 16.907 11.21C16.869 10.993 16.722 11 16.625 11.241C16.583 11.332 16.534 11.811 16.542 11.811C16.509 11.954 16.691 12.015 16.774 11.831ZM24.944 14.214C24.944 14.214 23.941 14.927 23.917 14.952C23.817 15.04 23.867 15.352 23.917 15.316C23.988 15.344 24.997 14.659 24.977 14.579C25.024 14.581 25.047 14.178 24.944 14.214ZM24.821 16.148C24.888 16.184 25.065 15.965 25.058 15.692C25.078 15.551 25.007 15.034 24.831 14.946C24.723 14.916 24.579 15.008 24.629 15.179C24.604 15.261 24.753 15.548 24.792 15.7C24.827 15.809 24.748 16.116 24.821 16.148ZM19.141 17.644C19.141 17.653 19.226 17.726 19.326 17.668C19.536 17.587 19.668 17.509 19.962 17.444C20.039 17.443 20.034 17.236 19.912 17.229C19.753 17.237 19.605 17.245 19.446 17.371C19.348 17.393 19.332 17.334 19.31 17.28C19.286 17.147 19.365 17.055 19.348 16.956C19.354 16.962 19.257 16.873 19.158 16.923C19.153 16.923 18.937 17.069 18.868 17.171C18.825 17.204 18.83 17.232 18.843 17.287C18.876 17.363 18.935 17.34 19.001 17.304C19.089 17.292 19.131 17.35 19.124 17.455C19.082 17.588 19.141 17.637 19.141 17.644ZM25.692 17.81C25.659 17.867 25.637 17.953 25.739 17.98C25.927 18.033 26.36 17.751 26.36 17.746C26.43 17.693 26.407 17.594 26.401 17.594C26.36 17.547 26.268 17.574 26.206 17.567C26.177 17.567 26.079 17.552 26.126 17.466C26.159 17.4196 26.1853 17.3688 26.204 17.315C26.233 17.25 26.208 17.207 26.102 17.172C25.995 17.152 25.952 17.162 25.833 17.172C25.769 17.186 25.747 17.214 25.735 17.292C25.74 17.41 25.811 17.404 25.885 17.451C25.928 17.506 25.956 17.556 25.882 17.645C25.812 17.71 25.763 17.746 25.692 17.81ZM25.5 23H24V22.5C24 22.3674 23.9473 22.2402 23.8535 22.1465C23.7598 22.0527 23.6326 22 23.5 22C23.3674 22 23.2402 22.0527 23.1464 22.1465C23.0527 22.2402 23 22.3674 23 22.5V23H11C11 23 11 24 14 24H23V24.5C23 24.6326 23.0527 24.7598 23.1464 24.8536C23.2402 24.9473 23.3674 25 23.5 25C23.6326 25 23.7598 24.9473 23.8535 24.8536C23.9473 24.7598 24 24.6326 24 24.5V24H25V24.5C25 24.6326 25.0527 24.7598 25.1464 24.8536C25.2402 24.9473 25.3674 25 25.5 25C25.6326 25 25.7598 24.9473 25.8535 24.8536C25.9473 24.7598 26 24.6326 26 24.5V23.5C26 23.3674 25.9473 23.2402 25.8535 23.1465C25.7598 23.0527 25.6326 23 25.5 23Z" fill="white"/>
</g>
<defs>
<clipPath id="clip0_82_808">
<rect width="36" height="36" fill="white"/>
</clipPath>
</defs>
</svg>
