<svg width="24" height="24" viewBox="0 0 24 24" fill="none" xmlns="http://www.w3.org/2000/svg">
<path fill-rule="evenodd" clip-rule="evenodd" d="M5.80904 1.2083C5.45032 1.39776 5.07282 1.84995 4.97826 2.20334C4.93218 2.37578 4.83893 2.46041 4.63766 2.51258C4.26219 2.60989 3.71357 3.17751 3.58715 3.59955C3.51324 3.84618 3.38753 4.00829 3.14666 4.16772C2.74357 4.43445 2.39568 5.11174 2.39441 5.63208C2.39381 5.88239 2.3407 6.0305 2.20984 6.14692C1.61607 6.67523 1.5627 8.27281 2.12724 8.6217C2.2887 8.72149 2.23235 8.81819 1.98374 8.86795C0.354303 9.19383 0.886448 11.7419 2.57427 11.6955L3.05523 11.6822L3.10608 12.4286C3.21844 14.0779 4.02825 15.4327 5.24982 16.0152C5.73336 16.2458 5.71019 16.6083 5.2038 16.7344C2.583 17.3868 1.02067 19.3817 1.02067 22.0759V23H7.75249H14.4843L14.5099 22.4637C14.6374 19.7859 13.0267 17.446 10.6284 16.8251C10.4175 16.7705 10.1774 16.7062 10.0948 16.6822C9.77701 16.59 9.91078 16.196 10.3366 15.9701C11.5872 15.3066 12.4297 13.7491 12.4325 12.0956C12.433 11.7785 12.4621 11.7028 12.5833 11.7033C13.5429 11.7075 13.9221 11.5505 14.2974 10.9936C14.8063 10.2384 14.2441 8.84175 13.4312 8.84175C13.2457 8.84175 13.2519 8.81155 13.5205 8.40566C13.9433 7.76686 13.8819 6.81658 13.3807 6.23869C13.213 6.04533 13.1301 5.83494 13.0925 5.50791C13.0275 4.94254 12.703 4.36866 12.3113 4.12653C12.1254 4.0117 11.996 3.852 11.9615 3.69499C11.8657 3.25851 11.4571 2.79359 10.9945 2.59457C10.677 2.45804 10.5501 2.35101 10.5084 2.18483C10.2794 1.27272 8.95452 0.730742 8.0307 1.17129C7.76469 1.29809 7.71954 1.29809 7.47428 1.17129C7.09437 0.974793 6.21411 0.994398 5.80904 1.2083ZM15.5396 1.25514C14.8864 1.58064 14.5424 2.12585 14.4446 2.99079L14.3845 3.52168H14.8246H15.2647L15.2651 3.11408C15.2663 1.53341 17.6435 1.29694 17.9273 2.84922C18.0378 3.45303 17.8495 3.77287 16.9717 4.47289L16.2087 5.08137V5.93187V6.78237H16.5948H16.9809L16.9821 6.16021L16.9832 5.53812L17.6833 4.93749C18.4503 4.27947 18.677 3.93136 18.752 3.29657C18.9499 1.61968 17.1296 0.462802 15.5396 1.25514ZM7.24166 1.97708C7.35187 2.06852 7.37044 2.53971 7.37044 5.24832V8.41269H5.27113H3.17182L2.8712 8.1487C2.32082 7.66549 2.38079 6.96359 3.00789 6.54859C3.38028 6.30218 3.36771 6.33699 3.24458 5.89359C3.04924 5.18989 3.59089 4.58619 4.34759 4.66428C4.78681 4.70958 5.13691 4.46652 5.13911 4.11461C5.1396 4.03702 4.72311 3.86491 4.53475 3.86491C4.3053 3.86491 4.32441 3.76633 4.60625 3.4963C5.029 3.09129 5.58421 3.12056 6.0353 3.5717C6.18654 3.72295 6.57409 3.62876 6.76948 3.39328C6.90051 3.23545 6.48248 2.76613 6.0454 2.58034L5.69717 2.43234L6.02129 2.108C6.36584 1.76324 6.91325 1.70447 7.24166 1.97708ZM9.42169 2.02634C10.1479 2.6374 9.89167 3.5041 8.8935 3.81301C8.77873 3.84854 8.74336 3.95338 8.74336 4.25789V4.65626L9.05287 4.59821C9.73752 4.46976 10.2208 4.11923 10.4649 3.57412L10.6175 3.23336L10.9246 3.54057C11.4706 4.08655 11.203 5.03162 10.4559 5.19571C10.22 5.2475 10.2021 5.27902 10.2021 5.64207V6.03264L10.5514 5.9858C10.9964 5.9261 11.5368 5.56991 11.7624 5.18742C12.0485 4.70255 12.4442 5.28725 12.2613 5.92468C12.145 6.3304 12.1339 6.30289 12.5151 6.55507C13.1546 6.97826 13.1764 7.73523 12.5626 8.2034C12.2892 8.41192 12.2803 8.41269 10.2155 8.41269H8.14273V7.48036C8.14273 6.48527 8.25273 6.18147 8.65978 6.05225C8.79487 6.00941 8.8292 5.92149 8.8292 5.61813C8.8292 5.20812 8.76626 5.16809 8.36279 5.32147L8.14273 5.40516V3.73893C8.14273 2.11432 8.14746 2.06929 8.33341 1.93908C8.631 1.73061 9.11652 1.76955 9.42169 2.02634ZM5.22527 5.60231C5.22527 5.95472 5.24916 5.99914 5.49321 6.10025C5.66065 6.16961 5.80596 6.31843 5.88049 6.4968C5.99416 6.76886 6.51719 6.92049 6.70259 6.73514C7.01194 6.42579 6.17951 5.37018 5.545 5.26727L5.22527 5.21537V5.60231ZM3.62906 6.66962C3.09922 6.77397 3.87915 7.81206 4.48741 7.81206C4.73986 7.81206 4.66517 7.18716 4.37565 6.87721C4.13687 6.62163 4.02737 6.59115 3.62906 6.66962ZM10.438 6.87139C9.95159 7.37289 10.145 7.97906 10.6999 7.69212C11.1516 7.45856 11.538 6.71301 11.221 6.68676C11.1562 6.68138 11.0065 6.66594 10.8886 6.65254C10.7443 6.63612 10.5968 6.70774 10.438 6.87139ZM16.3116 7.48596C16.255 7.54258 16.2087 7.67005 16.2087 7.76912C16.2087 7.86824 16.255 7.99565 16.3116 8.05232C16.3682 8.10894 16.4957 8.15529 16.5948 8.15529C16.6939 8.15529 16.8213 8.10894 16.8779 8.05232C16.9346 7.99565 16.9809 7.86824 16.9809 7.76912C16.9809 7.67005 16.9346 7.54258 16.8779 7.48596C16.8213 7.42935 16.6939 7.383 16.5948 7.383C16.4957 7.383 16.3682 7.42935 16.3116 7.48596ZM20.8292 7.55615C20.0965 7.94326 19.8957 8.84175 20.5419 8.84175C20.866 8.84175 20.9281 8.81517 20.9281 8.67634C20.9281 8.46975 21.3164 8.15529 21.5716 8.15529C22.3389 8.15529 22.4037 8.84637 21.7004 9.52822L21.1855 10.0273V10.8361C21.1855 11.7764 21.163 11.7312 21.6101 11.6885L21.9578 11.6554V11.0387V10.422L22.3508 10.0394C23.7509 8.67662 22.5177 6.66408 20.8292 7.55615ZM4.30805 9.37802C4.21189 9.48423 4.09047 9.64832 4.03824 9.74272C3.95669 9.89017 3.94296 9.86299 3.94076 9.54963C3.93824 9.19663 3.94686 9.18499 4.21052 9.18499H4.4829L4.30805 9.37802ZM8.52095 9.39383C8.33176 9.66403 7.15472 9.64755 6.97432 9.3722L6.844 9.17334L7.74063 9.20058C8.6075 9.22694 8.63336 9.23337 8.52095 9.39383ZM11.5724 9.54963C11.5702 9.86299 11.5564 9.89017 11.4749 9.74272C11.4226 9.64832 11.3013 9.48423 11.2051 9.37802L11.0303 9.18499H11.3027C11.5663 9.18499 11.5749 9.19663 11.5724 9.54963ZM3.08005 10.2576V10.9011H2.64709C1.90988 10.9011 1.53348 10.2874 1.97952 9.81258C2.12922 9.65321 2.25635 9.614 2.62309 9.614H3.08005V10.2576ZM6.25518 9.84997C7.1517 10.6624 6.21158 12.0133 5.13664 11.4574C4.50602 11.1313 4.46978 10.1699 5.07222 9.74794C5.38859 9.52635 5.95171 9.57495 6.25518 9.84997ZM10.424 9.75546C11.0447 10.1621 11.0178 11.1258 10.3765 11.4574C9.29264 12.0179 8.33593 10.6177 9.26732 9.83405C9.57733 9.57319 10.0924 9.53816 10.424 9.75546ZM13.5216 9.80055C13.9991 10.2492 13.6108 10.9011 12.866 10.9011H12.4331V10.2576V9.614H12.8781C13.2168 9.614 13.3704 9.65853 13.5216 9.80055ZM7.97331 10.4721C8.00824 10.5429 8.07464 10.7552 8.12088 10.944C8.16712 11.1328 8.23368 11.3548 8.26882 11.4374C8.32599 11.5718 8.27239 11.5876 7.75656 11.5876C7.24083 11.5876 7.18712 11.5718 7.24413 11.4374C7.27916 11.3548 7.35083 11.1135 7.4035 10.9011C7.55358 10.2952 7.79599 10.1128 7.97331 10.4721ZM4.43815 11.9501C4.63431 12.1273 4.91955 12.2894 5.09237 12.3218C5.48596 12.3956 5.50996 12.4451 5.34433 12.8415C4.89473 13.9176 5.66219 14.6904 6.98432 14.4929C7.31464 14.4436 7.66221 14.4084 7.75656 14.4148C9.28484 14.5176 9.53361 14.513 9.73977 14.3779C10.2406 14.0498 10.4101 13.4192 10.1592 12.8186C9.9841 12.3995 9.98794 12.3892 10.3388 12.3323C10.7052 12.2728 11.1807 11.9298 11.415 11.5562L11.5835 11.2873L11.5578 12.2741C11.5189 13.7689 10.9712 14.7175 9.78107 15.3519C9.21499 15.6536 9.17243 15.7206 9.17243 16.3085C9.17243 16.7104 8.60777 17.3344 7.82932 17.7931C7.77397 17.8257 7.42486 17.6045 7.03561 17.2902L6.34074 16.7292L6.338 16.2821C6.33476 15.7447 6.26705 15.6484 5.64368 15.294C4.48873 14.6375 3.99096 13.7441 3.96081 12.2741C3.94812 11.654 3.96844 11.3521 4.01545 11.4616C4.05664 11.5575 4.24687 11.7773 4.43815 11.9501ZM15.0931 11.6839C14.5531 11.8429 14.0663 12.477 14.0639 13.0248C14.0627 13.2867 14.8379 13.1515 14.935 12.8729C15.1605 12.226 16.2087 12.3395 16.2087 13.0108C16.2087 13.1653 16.0521 13.3957 15.6938 13.769L15.179 14.3051V15.1344V15.9638H15.5651H15.9512V15.2952V14.6266L16.3443 14.244C17.6246 12.9978 16.745 11.1978 15.0931 11.6839ZM21.2885 12.4628C21.2318 12.5194 21.1855 12.6469 21.1855 12.746C21.1855 12.8451 21.2318 12.9725 21.2885 13.0292C21.3451 13.0858 21.4725 13.1321 21.5716 13.1321C21.6707 13.1321 21.7982 13.0858 21.8548 13.0292C21.9114 12.9725 21.9578 12.8451 21.9578 12.746C21.9578 12.6469 21.9114 12.5194 21.8548 12.4628C21.7982 12.4062 21.6707 12.3598 21.5716 12.3598C21.4725 12.3598 21.3451 12.4062 21.2885 12.4628ZM9.0794 12.6673C9.37227 12.9137 9.53208 13.3505 9.41423 13.5826C9.27369 13.8594 8.38651 13.7909 8.02735 13.4755C7.76677 13.2468 7.72201 13.2331 7.623 13.3525C7.09042 13.9942 5.91031 13.846 6.09653 13.1607C6.29709 12.4223 8.37904 12.078 9.0794 12.6673ZM19.209 15.2619C18.391 15.6244 18.0444 16.6502 18.7399 16.6502C19.031 16.6502 19.1261 16.6176 19.1261 16.5176C19.1261 16.0791 19.8693 15.8166 20.2464 16.122C20.6069 16.4139 20.5146 16.7579 19.9126 17.3651L19.3835 17.899V18.6904V19.4819H19.7696H20.1558V18.8671V18.2523L20.6641 17.7229C21.8939 16.4421 20.7836 14.564 19.209 15.2619ZM15.2819 16.6674C15.2253 16.724 15.179 16.8777 15.179 17.009C15.179 17.4378 15.8702 17.445 15.9343 17.0169C15.985 16.6786 15.5199 16.4294 15.2819 16.6674ZM6.54119 17.9481C6.98673 18.3026 7.17658 18.5052 7.12413 18.5702C7.08141 18.6233 6.83445 18.9634 6.57535 19.3261L6.10433 19.9855L5.96813 19.6693C5.89323 19.4954 5.69152 18.9863 5.5199 18.538C5.34829 18.0897 5.19111 17.6954 5.17057 17.6617C5.13713 17.6069 5.55653 17.4499 5.78883 17.4302C5.83919 17.426 6.17775 17.6591 6.54119 17.9481ZM10.03 17.5183L10.3497 17.6141L9.96592 18.6124C9.75482 19.1614 9.54712 19.7018 9.5044 19.8133L9.42675 20.016L9.27364 19.8133C9.1894 19.7018 8.93947 19.3531 8.71815 19.0385L8.31578 18.4664L8.96967 17.9445C9.32932 17.6574 9.64306 17.4225 9.6669 17.4225C9.69073 17.4225 9.85411 17.4656 10.03 17.5183ZM4.55545 18.3024C4.63541 18.5027 4.83432 19.0142 4.99748 19.439C5.16058 19.8637 5.41655 20.5298 5.5662 20.9191C5.90487 21.8 5.79915 21.8427 6.81023 20.4173C7.28087 19.7539 7.69181 19.195 7.72355 19.1755C7.75524 19.1559 7.9949 19.4388 8.25614 19.8043C9.71242 21.8414 9.64466 21.7652 9.74482 21.4769C9.91375 20.9908 11.0834 17.9734 11.1159 17.9399C11.2176 17.8352 11.9761 18.3641 12.4562 18.8746C13.2404 19.7083 13.7202 20.8252 13.7202 21.8167V22.2278H12.6781H11.636V21.6545C11.6196 20.7759 11.6746 20.8582 11.2655 20.8548H10.8886V21.5413V22.2278H7.75656H4.62459V21.5413V20.8548H4.23847H3.85235V21.5413V22.2278H2.82265H1.79296L1.79291 21.8184C1.79291 20.4972 2.67789 18.9308 3.84768 18.1816C4.3438 17.8639 4.38323 17.8706 4.55545 18.3024ZM19.4903 20.2674C19.2027 20.5551 19.5709 21.0391 19.947 20.8678C20.2857 20.7135 20.2195 20.2217 19.855 20.1859C19.7132 20.172 19.5491 20.2087 19.4903 20.2674Z" fill="black"/>
</svg>
