<svg width="24" height="24" viewBox="0 0 24 24" fill="none" xmlns="http://www.w3.org/2000/svg">
<g clip-path="url(#clip0_83_787)">
<path d="M10.8093 0.47813C10.3875 0.68438 10.1343 1.02188 9.60933 2.07188C8.91558 3.43125 8.48433 3.94688 6.32808 5.8875L4.9312 7.1625L4.86558 6.85313C4.82808 6.675 4.7437 6.50625 4.6687 6.45938C4.47183 6.32813 0.618701 6.35625 0.487451 6.4875C0.328076 6.64688 0.328076 15.1969 0.487451 15.3563C0.646826 15.5156 4.60308 15.5156 4.76245 15.3563C4.82808 15.2906 4.87495 15.1219 4.87495 14.9813C4.87495 14.8406 4.8937 14.7188 4.91245 14.7188C4.94058 14.7188 5.14683 14.8406 5.36245 14.9906C5.99058 15.4125 6.5812 15.6188 7.9312 15.8906C8.05308 15.9188 8.52183 16.4438 9.1312 17.2406L10.125 18.5531V20.925C10.125 22.6875 10.1531 23.3531 10.2468 23.4656C10.35 23.6156 10.8375 23.625 16.9687 23.6063L23.5781 23.5781L23.6062 18.9469C23.6156 15.6281 23.5968 14.2781 23.5218 14.1938C23.4375 14.0906 22.6781 14.0625 19.6687 14.0438L15.9281 14.0156L15.7781 13.7625C15.6281 13.5281 15.6375 13.5094 15.8718 13.2281C16.3312 12.6844 16.3968 12.0188 16.05 11.4188C15.9093 11.175 15.9093 11.1469 16.1624 10.8844C16.6124 10.4156 16.6781 9.34688 16.275 9.00938C16.1718 8.91563 16.1906 8.85938 16.4062 8.63438C16.9312 8.11875 16.9687 7.21875 16.4906 6.61875C16.0968 6.12188 15.9468 6.09375 13.5468 6.09375C12.3375 6.09375 11.3437 6.06563 11.3437 6.01875C11.3437 5.98125 11.4468 5.80313 11.5687 5.61563C11.9343 5.08125 12.6281 3.65625 12.7875 3.10313C13.1437 1.88438 12.7875 0.768755 11.9343 0.412504C11.5218 0.234379 11.2687 0.243755 10.8093 0.47813ZM11.8312 1.21875C12.1593 1.47188 12.3093 2.10938 12.1875 2.69063C12.0562 3.27188 11.3906 4.63125 10.7812 5.56875C10.0031 6.75938 9.87183 6.69375 13.0593 6.75L15.7687 6.79688L15.9937 7.05938C16.4625 7.6125 16.125 8.30625 15.3562 8.3625C14.6718 8.40938 14.6156 8.97188 15.2812 9.10313C15.8906 9.23438 16.125 9.9 15.7312 10.3594C15.5718 10.5375 15.3843 10.6219 15.0468 10.6688C14.6062 10.7344 14.5781 10.7531 14.5781 11.0156C14.5781 11.25 14.625 11.2969 14.9062 11.3531C15.4968 11.475 15.8531 12.1594 15.5343 12.5719C15.3656 12.7875 15.0468 12.9375 14.7281 12.9375C14.3156 12.9375 14.1562 13.0313 14.1562 13.2563C14.1562 13.5188 14.325 13.6875 14.5781 13.6875C14.6906 13.6875 14.8593 13.7531 14.9625 13.8281C15.1218 13.95 14.8875 13.9594 12.8625 13.9688C11.475 13.9688 10.5093 14.0063 10.3968 14.0625C10.2562 14.1375 10.2187 14.2594 10.2187 14.6156V15.075L8.9437 14.7C8.24995 14.4938 7.61245 14.3531 7.53745 14.3813C7.46245 14.4094 7.4062 14.5594 7.4062 14.7281C7.4062 15.0094 7.39683 15.0188 7.1062 14.9625C6.59995 14.8594 5.67183 14.3906 5.25933 14.0156L4.87495 13.6688V10.9219V8.18438L6.49683 6.72188C8.97183 4.5 9.48745 3.9 10.2937 2.2875C10.6781 1.51875 11.1187 1.03125 11.4281 1.03125C11.5218 1.03125 11.7093 1.11563 11.8312 1.21875ZM4.12495 10.9219V14.7188H2.57808H1.0312V10.9219V7.125H2.57808H4.12495V10.9219ZM22.9687 18.8906V22.9688L16.9499 22.95L10.9218 22.9219L10.8937 20.625L10.8656 18.3281L9.79683 16.9219C9.2062 16.1531 8.74683 15.5063 8.7562 15.4875C8.77495 15.4688 9.15933 15.5719 9.59995 15.7031C10.7343 16.05 10.8187 16.0219 10.8562 15.3469L10.8843 14.8125H16.9218H22.9687V18.8906Z" fill="black"/>
<path d="M16.125 15.4125C15.4313 15.6 14.9813 15.8625 14.5031 16.3312C12.7781 18.0469 13.3031 21 15.5156 22.0875C16.0313 22.3312 16.1625 22.3594 17.0625 22.3594C17.9438 22.3594 18.1031 22.3312 18.5625 22.1062C18.8531 21.9656 19.275 21.6562 19.5188 21.4219C20.85 20.0906 20.9625 18.1875 19.8 16.65C18.9656 15.5531 17.4563 15.0469 16.125 15.4125ZM18.3375 16.2937C18.8625 16.5656 19.5469 17.3438 19.725 17.8781C20.0719 18.8812 19.8094 20.0812 19.1063 20.8031C18.525 21.4031 17.8875 21.6656 17.0531 21.6656C16.4625 21.6656 16.2844 21.6281 15.7594 21.3562C13.6406 20.2781 13.7156 17.2969 15.8906 16.2469C16.3031 16.05 16.4625 16.0219 17.1563 16.0594C17.7375 16.0781 18.0563 16.1437 18.3375 16.2937Z" fill="black"/>
<path d="M15.4593 17.2125C15.1312 17.5594 15.1499 18.1313 15.4968 18.4313C15.8531 18.7313 16.1718 18.7125 16.5093 18.3844C16.8468 18.0469 16.8749 17.5781 16.5843 17.2125C16.3218 16.875 15.7781 16.875 15.4593 17.2125ZM16.1999 17.55C16.4531 17.8031 16.2187 18.2531 15.8999 18.1313C15.7499 18.075 15.6843 17.625 15.8156 17.5031C15.9093 17.4 16.0781 17.4281 16.1999 17.55Z" fill="black"/>
<path d="M16.7625 18.7688C15.1875 20.9156 15.2906 20.7188 15.7218 20.7094C16.0781 20.7094 16.0875 20.6906 17.3437 18.9656C18.0375 18.0094 18.6281 17.1938 18.6375 17.1469C18.6562 17.1 18.525 17.0625 18.3468 17.0625C18.0281 17.0625 17.9718 17.1188 16.7625 18.7688Z" fill="black"/>
<path d="M17.5968 19.2938C17.3625 19.5469 17.2687 19.8938 17.3625 20.2125C17.4562 20.5688 17.5968 20.7 17.9812 20.775C18.225 20.8219 18.3187 20.7844 18.5625 20.55C19.125 19.9875 18.8343 19.125 18.075 19.125C17.8781 19.125 17.6906 19.1906 17.5968 19.2938ZM18.3562 19.95C18.3937 20.3063 18.1687 20.4563 17.9343 20.2219C17.7187 20.0063 17.85 19.575 18.1218 19.6125C18.2812 19.6313 18.3375 19.7156 18.3562 19.95Z" fill="black"/>
</g>
<defs>
<clipPath id="clip0_83_787">
<rect width="24" height="24" fill="white"/>
</clipPath>
</defs>
</svg>
