<svg width="24" height="24" viewBox="0 0 24 24" fill="none" xmlns="http://www.w3.org/2000/svg">
<path d="M11.2735 0.285936C8.05784 0.590624 5.30628 2.92969 4.50472 6.05156C4.30316 6.83437 4.24691 7.38281 4.27972 8.2875C4.33597 9.96562 4.82816 11.325 5.89222 12.7734L5.99534 12.9141L5.71878 13.9453C5.56878 14.5125 5.03441 16.5328 4.52816 18.4359C3.65159 21.75 3.61409 21.9047 3.67503 22.0547C3.74534 22.2187 3.95159 22.3594 4.12503 22.3594C4.17659 22.3594 4.82816 22.0828 5.56878 21.7453C6.30941 21.4078 6.97972 21.1031 7.05941 21.0656L7.20472 21.0047L8.12347 22.3078C9.15472 23.7656 9.22503 23.8359 9.55316 23.7047C9.64691 23.6672 9.76409 23.5875 9.80628 23.5266C9.84847 23.4656 10.3453 21.7031 10.9032 19.6172C11.461 17.5266 11.9344 15.8016 11.9578 15.7781C11.9813 15.7547 12.0094 15.7453 12.0282 15.7594C12.0422 15.7734 12.5157 17.5125 13.0828 19.6266C14.1938 23.7469 14.1657 23.6719 14.4891 23.7422C14.7844 23.8078 14.8969 23.6953 15.8485 22.3406C16.3453 21.6422 16.7625 21.0562 16.7766 21.0375C16.7953 21.0187 17.4703 21.3187 18.2813 21.7031C19.2235 22.1531 19.8141 22.4062 19.9078 22.4062C20.1328 22.4062 20.3532 22.1953 20.3532 21.9797C20.3532 21.8859 19.8235 19.8094 19.1766 17.3672L17.9953 12.9234L18.1219 12.7547C18.8766 11.7281 19.3453 10.7062 19.6032 9.51562C19.6922 9.08906 19.7063 8.8875 19.7063 7.99219C19.7063 7.10156 19.6922 6.89531 19.6032 6.4875C19.0688 4.04062 17.5219 2.05781 15.3282 1.0125C14.4282 0.585936 13.6641 0.379686 12.6563 0.285936C12.0563 0.229687 11.8828 0.229687 11.2735 0.285936ZM13.5094 1.425C16.0875 2.02969 18.0516 4.04531 18.6188 6.67031C18.7688 7.35937 18.7641 8.625 18.6141 9.32344C18.1735 11.3812 16.9172 13.05 15.1078 13.9828C12.5297 15.3141 9.46409 14.8734 7.37347 12.8719C6.32816 11.8781 5.68597 10.725 5.38128 9.31406C5.24534 8.67656 5.23597 7.40625 5.35784 6.78281C5.92972 3.92344 8.17503 1.76719 11.0532 1.3125C11.2032 1.28906 11.7 1.27969 12.1641 1.28906C12.8625 1.30312 13.0969 1.32656 13.5094 1.425ZM7.80472 14.5125C8.59222 15.0234 9.58597 15.4219 10.4907 15.5953C10.725 15.6375 10.9219 15.6984 10.9219 15.7266C10.9219 15.75 10.5422 17.1844 10.0828 18.9094L9.24847 22.0453L8.50784 21.0281C8.10003 20.4656 7.72034 19.9781 7.65941 19.9359C7.43909 19.7953 7.26097 19.8469 6.09378 20.3906C5.47503 20.6812 4.95472 20.9109 4.94534 20.8969C4.92659 20.8781 6.42191 15.2625 6.77816 14.025L6.84847 13.7812L7.13909 14.025C7.29847 14.1562 7.59847 14.3766 7.80472 14.5125ZM18.1172 17.4844C18.6188 19.3781 19.0313 20.9437 19.0313 20.9578C19.0313 20.9766 18.5157 20.7516 17.8875 20.4562C16.7063 19.9078 16.5235 19.8516 16.3266 19.9922C16.2703 20.0344 15.9047 20.5078 15.511 21.0469C15.1219 21.5906 14.7891 22.0406 14.7703 22.05C14.7563 22.0594 14.3625 20.6437 13.9032 18.9047C13.0172 15.5766 13.036 15.6609 13.2797 15.6562C13.4157 15.6562 14.2641 15.4312 14.6344 15.3C15.3282 15.0469 16.3828 14.4656 16.9453 14.0156C17.1141 13.8797 17.1328 13.875 17.1657 13.9547C17.1891 14.0016 17.6157 15.5906 18.1172 17.4844Z" fill="black"/>
<path d="M12.7266 4.32187C12.4359 4.81875 11.6156 5.53125 10.9125 5.8875L10.5938 6.04688V6.49687C10.5938 6.9375 10.5938 6.94219 10.7016 6.91406C11.0109 6.82031 11.6906 6.40781 12.4266 5.86406C12.5156 5.80312 12.5156 5.88281 12.5156 8.85469V11.9062H12.9844H13.4531L13.4438 8.00156L13.4297 4.10156L13.1484 4.0875L12.8672 4.07812L12.7266 4.32187Z" fill="black"/>
</svg>
