<svg width="24" height="24" viewBox="0 0 24 24" fill="none" xmlns="http://www.w3.org/2000/svg">
<path d="M11.789 0.276562C11.5265 0.346874 11.3203 0.454685 11.039 0.674999C10.514 1.0875 10.214 1.26562 10.0453 1.26562C9.96092 1.26562 9.68436 1.23281 9.43123 1.19062C8.64842 1.06406 8.20311 1.17187 7.82811 1.575C7.63123 1.78594 7.54686 1.94531 7.26561 2.63906C7.08748 3.07031 7.00779 3.13594 6.31404 3.39844C5.52654 3.69844 5.26404 3.93281 5.15154 4.43906C5.10467 4.64531 5.10467 4.77656 5.15154 5.08125C5.23592 5.63437 5.26404 6.02344 5.23592 6.15C5.21717 6.21562 5.04373 6.46406 4.85154 6.70781C4.40623 7.26093 4.29842 7.48125 4.27498 7.875C4.25154 8.29687 4.37342 8.59687 4.78592 9.1125C5.24998 9.70312 5.26873 9.74531 5.23123 10.1672C5.14686 11.1703 5.14217 11.475 5.21717 11.6906C5.37654 12.15 5.66248 12.3891 6.44061 12.7031C7.00779 12.9281 7.13904 13.0312 7.08279 13.1859C7.05936 13.2422 6.25779 15.1828 5.29686 17.5031C3.38436 22.1156 3.45936 21.8953 3.75467 22.1437C3.83436 22.2094 3.95154 22.2656 4.01717 22.2656C4.08748 22.2656 4.59373 22.1391 5.15154 21.9797C5.70936 21.825 6.16873 21.7125 6.17342 21.7359C6.18279 21.7547 6.41717 22.1859 6.69842 22.6828C7.11092 23.4281 7.23748 23.6109 7.36404 23.6812C7.63592 23.8312 7.92654 23.7141 8.01092 23.4187C8.02967 23.3391 8.74217 21.6047 9.58592 19.5703C10.4297 17.5312 11.1469 15.7969 11.1844 15.7125L11.2453 15.5578L11.4469 15.6656C11.7094 15.8062 12.2719 15.8156 12.5109 15.6844C12.5953 15.6375 12.6844 15.6187 12.7031 15.6422C12.7219 15.6609 13.439 17.3766 14.2969 19.4531C15.1547 21.5297 15.8953 23.3156 15.9469 23.4234C16.1109 23.7797 16.5562 23.85 16.814 23.5687C16.8656 23.5078 17.114 23.0859 17.3672 22.6266C17.6156 22.1719 17.8359 21.7875 17.8547 21.7781C17.8687 21.7687 18.3281 21.8859 18.8672 22.0359C19.9594 22.3453 20.0765 22.3547 20.3109 22.1203C20.4281 21.9984 20.4469 21.9562 20.4187 21.8016C20.4047 21.7078 19.6125 19.7437 18.6562 17.4375C17.25 14.0344 16.9359 13.2375 16.9781 13.1812C17.0109 13.1437 17.3156 12.9797 17.6625 12.8156C18.4078 12.4594 18.614 12.3094 18.7687 11.9859C18.9328 11.6531 18.9656 11.2781 18.8719 10.7578C18.8297 10.5234 18.7969 10.2281 18.7969 10.1016C18.7969 9.87656 18.8156 9.83437 19.2 9.32812C19.7156 8.64843 19.7953 8.47031 19.7719 8.03906C19.7531 7.64531 19.6453 7.41562 19.2797 6.95625C18.8344 6.39844 18.7828 6.28125 18.8156 5.91562C18.9047 4.89375 18.9047 4.55156 18.8203 4.32656C18.6797 3.96094 18.3328 3.66562 17.6625 3.3375C17.0156 3.02344 17.0953 3.1125 16.6922 2.24531C16.2281 1.2375 15.7969 1.01719 14.6344 1.19531C14.3437 1.24219 14.0297 1.26562 13.9406 1.25156C13.8328 1.23281 13.6125 1.10156 13.3125 0.867186C13.0547 0.674999 12.7453 0.459373 12.6234 0.398436C12.375 0.271873 12.0094 0.22031 11.789 0.276562ZM12.3609 1.48594C12.4687 1.56094 12.6469 1.69687 12.7594 1.79062C12.8719 1.88437 13.0875 2.03906 13.2422 2.13281L13.5234 2.30625L14.1328 2.27812C14.4703 2.25937 14.8922 2.23594 15.0703 2.22187C15.4781 2.18906 15.4875 2.19844 15.7453 2.85469C16.1203 3.81094 16.3265 4.01719 17.2265 4.3125C17.6625 4.45781 17.8125 4.60781 17.8125 4.89844C17.8125 5.01562 17.7797 5.27812 17.7375 5.475C17.5547 6.34218 17.6484 6.7125 18.2062 7.40156C18.4265 7.67344 18.6187 7.95 18.6328 8.02031C18.6703 8.18437 18.5484 8.40937 18.2109 8.8125C18.0703 8.98125 17.8875 9.24375 17.8125 9.39375C17.6484 9.72187 17.6297 10.0453 17.7422 10.6875C17.7797 10.9078 17.8125 11.175 17.8125 11.2828C17.8125 11.5172 17.7515 11.5594 17.0015 11.8594C16.2187 12.1687 16.0031 12.4031 15.6562 13.3406C15.4969 13.7719 15.3797 13.9219 15.1969 13.9219C15.1265 13.9219 14.8312 13.8797 14.5359 13.8234C14.0672 13.7344 13.964 13.7297 13.6969 13.7766C13.3031 13.8516 13.1859 13.9125 12.6797 14.325C12.4453 14.5125 12.1969 14.6906 12.1265 14.7141C11.9437 14.7844 11.7562 14.6953 11.339 14.3484C11.1515 14.1891 10.8609 13.9922 10.6922 13.9078C10.3922 13.7625 10.3687 13.7578 9.79686 13.7625C9.47342 13.7672 9.08436 13.7859 8.92498 13.8047C8.66248 13.8375 8.62967 13.8281 8.53592 13.7297C8.48436 13.6734 8.35311 13.4016 8.24529 13.1297C7.89373 12.2016 7.70154 12.0187 6.73123 11.6672C6.51561 11.5922 6.29529 11.4844 6.23904 11.4328C6.11717 11.3156 6.10779 11.0578 6.21561 10.5844C6.31404 10.1578 6.29061 9.51562 6.16404 9.28125C6.11717 9.19219 5.91561 8.91094 5.71404 8.65781C5.51248 8.40937 5.32967 8.14687 5.31561 8.08125C5.27811 7.93125 5.37654 7.71094 5.59217 7.46718C6.27186 6.69375 6.37498 6.35625 6.21092 5.4375C6.11248 4.88437 6.11717 4.66406 6.23436 4.55625C6.28123 4.50937 6.54373 4.40156 6.81561 4.31719C7.70154 4.04062 8.02967 3.74531 8.30154 3C8.37654 2.77969 8.48904 2.5125 8.54529 2.41406C8.64373 2.24062 8.66717 2.22656 8.87811 2.2125C8.99998 2.20312 9.28123 2.23125 9.50154 2.27812C9.99842 2.37656 10.5 2.34844 10.7719 2.20781C10.875 2.15625 11.0859 2.01094 11.2359 1.88437C11.925 1.3125 12.0375 1.27031 12.3609 1.48594ZM7.81404 14.5312C8.10936 14.8828 8.62498 14.9719 9.52967 14.8359C10.0547 14.7562 10.0781 14.7562 10.2515 14.8406C10.35 14.8922 10.4344 14.9625 10.4437 15C10.4484 15.0375 9.81092 16.65 9.03279 18.5766C8.01561 21.0797 7.59373 22.0641 7.56092 22.0219C7.53748 21.9891 7.37342 21.7031 7.19998 21.3891C6.71717 20.5078 6.66561 20.4891 5.67186 20.7844C5.29686 20.8969 4.98748 20.9812 4.97811 20.9766C4.96404 20.9625 7.65467 14.3906 7.67811 14.3906C7.68748 14.3906 7.74842 14.4562 7.81404 14.5312ZM17.7375 17.7047C18.4734 19.4859 19.0781 20.9578 19.0781 20.9672C19.0781 20.9812 18.7594 20.8969 18.3656 20.7797C17.5781 20.55 17.4375 20.5453 17.2406 20.7562C17.175 20.8266 16.9828 21.1406 16.8094 21.4594C16.6359 21.7734 16.4765 22.0312 16.4578 22.0312C16.439 22.0312 15.7734 20.4562 14.9765 18.525C14.1844 16.5984 13.5234 15.0094 13.514 14.9906C13.5047 14.9719 13.5656 14.9203 13.65 14.8781C13.7812 14.8125 13.8703 14.8078 14.2734 14.8406C15.4312 14.9391 15.8578 14.8781 16.1719 14.5547C16.2609 14.4656 16.3453 14.4047 16.364 14.4234C16.3828 14.4469 17.0015 15.9187 17.7375 17.7047Z" fill="black"/>
<path d="M11.4891 4.03125C9.80157 4.26562 8.41876 5.55937 8.08595 7.21406C7.97814 7.73437 8.01095 8.59219 8.15157 9.08437C8.53595 10.4156 9.54845 11.4281 10.9078 11.8453C11.2734 11.9531 11.3953 11.9672 12 11.9672C12.6047 11.9672 12.7266 11.9531 13.0922 11.8453C14.1938 11.5078 15 10.8469 15.5344 9.83906C15.8297 9.28594 15.9422 8.85937 15.9703 8.175C16.0219 7.02656 15.6703 6.075 14.8875 5.25937C14.0063 4.33594 12.6984 3.86719 11.4891 4.03125ZM12.6938 5.08594C13.5234 5.28281 14.2875 5.89219 14.6672 6.65625C14.9203 7.17187 15.0188 7.63125 14.9859 8.16094C14.9203 9.23437 14.3203 10.1578 13.3594 10.6594C12.9281 10.8891 12.525 10.9828 12 10.9828C11.4703 10.9828 11.0719 10.8891 10.6359 10.6594C9.85314 10.2469 9.31407 9.5625 9.09376 8.69531C8.69532 7.13906 9.70782 5.475 11.2969 5.08594C11.6438 5.00156 12.3328 5.00156 12.6938 5.08594Z" fill="black"/>
</svg>
