<svg width="24" height="24" viewBox="0 0 24 24" fill="none" xmlns="http://www.w3.org/2000/svg">
<path fill-rule="evenodd" clip-rule="evenodd" d="M16.53 8.97C16.6705 9.11063 16.7494 9.30125 16.7494 9.5C16.7494 9.69875 16.6705 9.88938 16.53 10.03L12.53 14.03C12.3894 14.1705 12.1988 14.2493 12 14.2493C11.8013 14.2493 11.6107 14.1705 11.47 14.03L7.47003 10.03C7.39634 9.96134 7.33724 9.87854 7.29625 9.78654C7.25526 9.69454 7.23322 9.59523 7.23144 9.49452C7.22966 9.39382 7.24819 9.29379 7.28591 9.2004C7.32363 9.10702 7.37977 9.02218 7.45099 8.95096C7.52221 8.87974 7.60705 8.8236 7.70043 8.78588C7.79382 8.74816 7.89385 8.72963 7.99455 8.73141C8.09526 8.73319 8.19457 8.75523 8.28657 8.79622C8.37857 8.83721 8.46137 8.89631 8.53003 8.97L12 12.44L15.47 8.97C15.6107 8.82955 15.8013 8.75066 16 8.75066C16.1988 8.75066 16.3894 8.82955 16.53 8.97Z" fill="black"/>
</svg>
