<svg width="22" height="22" viewBox="0 0 22 22" fill="none" xmlns="http://www.w3.org/2000/svg">
<path fill-rule="evenodd" clip-rule="evenodd" d="M15.5238 8.21882C15.6526 8.34772 15.7249 8.52246 15.7249 8.70465C15.7249 8.88684 15.6526 9.06158 15.5238 9.19048L11.8571 12.8571C11.7282 12.9859 11.5535 13.0582 11.3713 13.0582C11.1891 13.0582 11.0144 12.9859 10.8855 12.8571L7.21882 9.19048C7.15127 9.12754 7.09709 9.05164 7.05952 8.96731C7.02194 8.88298 7.00174 8.79194 7.00011 8.69963C6.99848 8.60732 7.01546 8.51562 7.05004 8.43002C7.08461 8.34441 7.13608 8.26665 7.20136 8.20136C7.26665 8.13608 7.34441 8.08461 7.43002 8.05004C7.51562 8.01546 7.60732 7.99848 7.69963 8.00011C7.79194 8.00174 7.88298 8.02194 7.96731 8.05952C8.05164 8.09709 8.12754 8.15127 8.19048 8.21882L11.3713 11.3996L14.5521 8.21882C14.6811 8.09007 14.8558 8.01775 15.038 8.01775C15.2202 8.01775 15.3949 8.09007 15.5238 8.21882Z" fill="#505154"/>
</svg>
