<svg width="24" height="24" viewBox="0 0 24 24" fill="none" xmlns="http://www.w3.org/2000/svg">
<path d="M9.81564 1.17187C5.71877 1.95 2.44689 4.9875 1.35002 9.04688C1.11564 9.9 1.08752 10.1344 1.08752 11.7188C1.07814 13.6875 1.20002 14.3344 1.90314 16.0781C2.35314 17.1938 2.36252 17.4938 2.02502 18.5625C1.57502 19.9781 1.58439 20.6719 2.07189 21.2344C2.22189 21.4031 2.54064 21.6188 2.76564 21.7125C3.28127 21.9094 3.72189 21.8531 4.94064 21.4688C5.41877 21.3094 5.94377 21.1875 6.10314 21.1875C6.26252 21.1875 6.86252 21.375 7.43439 21.6C8.79377 22.125 9.46877 22.2938 10.7531 22.425C17.1469 23.0906 22.7906 17.7188 22.4625 11.2969C22.2563 7.20937 19.9594 3.75 16.2844 2.01562C14.8688 1.34062 13.8188 1.10625 12.0469 1.06875C10.9875 1.05 10.3313 1.07812 9.81564 1.17187ZM14.0906 2.80312C17.3813 3.68437 19.9031 6.2625 20.7375 9.61875C21.0094 10.725 21.0281 12.6281 20.775 13.7344C19.8938 17.5781 16.7344 20.4375 12.825 20.9156C11.2219 21.1125 9.66564 20.8688 7.86564 20.1469C6.46877 19.5938 6.03752 19.575 4.59377 20.0062C3.96564 20.2031 3.39377 20.3344 3.31877 20.3063C3.12189 20.2313 3.15939 19.9406 3.48752 18.9469C3.92814 17.5875 3.90939 17.0344 3.33752 15.6094C2.68127 13.9781 2.50314 13.0125 2.55939 11.4375C2.64377 9.00937 3.40314 7.17188 5.04377 5.42813C6.44064 3.94687 8.21252 2.98125 10.2 2.625C10.9969 2.475 13.275 2.57812 14.0906 2.80312Z" fill="black"/>
<path d="M7.20003 11.3062C6.3094 11.7844 6.67503 13.125 7.68753 13.125C8.6344 13.125 9.01878 11.8219 8.2219 11.3437C7.86565 11.1187 7.5469 11.1094 7.20003 11.3062Z" fill="black"/>
<path d="M11.2875 11.25C10.9875 11.3719 10.6875 11.8031 10.6875 12.1125C10.6875 12.7125 11.1 13.1156 11.7 13.125C12.2719 13.125 12.6563 12.7406 12.6563 12.1875C12.6563 11.8687 12.6 11.7375 12.3375 11.475C12.0094 11.1469 11.7 11.0812 11.2875 11.25Z" fill="black"/>
<path d="M15.0469 11.4656C14.775 11.7375 14.7188 11.8594 14.7188 12.1875C14.7188 13.2 16.1156 13.5094 16.5844 12.5906C16.8938 11.9906 16.4813 11.2781 15.7781 11.1844C15.4125 11.1375 15.3469 11.1656 15.0469 11.4656Z" fill="black"/>
</svg>
