<svg width="24" height="24" viewBox="0 0 24 24" fill="none" xmlns="http://www.w3.org/2000/svg">
<path fill-rule="evenodd" clip-rule="evenodd" d="M13.5197 1.22913C11.8228 1.92696 11.1209 3.8384 11.9564 5.48695C12.1989 5.96572 12.9982 6.72045 13.4046 6.85459L13.6967 6.95099L13.7271 7.95571C13.767 9.27588 14.3342 10.3973 15.0894 10.649C15.176 10.6779 15.1372 10.7775 14.9423 11.0259C14.2581 11.8982 14.3031 13.149 15.0483 13.9739C15.3124 14.2662 15.3378 14.3333 15.2609 14.5355C15.2129 14.6617 15.1736 14.915 15.1736 15.0984V15.4317L14.876 15.3074C14.4862 15.1445 13.7902 15.149 13.3899 15.3168C13.0968 15.4398 13.0638 15.439 12.985 15.3075C12.3831 14.3038 11.1241 14.1511 10.4392 14.9988C10.2935 15.1791 10.0386 15.3124 9.50902 15.4852C9.10775 15.616 8.7316 15.7408 8.6731 15.7623C8.55681 15.8051 6.76254 14.0862 6.76254 13.932C6.76254 13.8797 6.92579 13.788 7.12529 13.7282C8.57752 13.2931 9.00048 12.2979 8.69562 10.0334L8.57428 9.13213L8.90885 8.78882C9.81404 7.85991 9.76499 6.38115 8.79647 5.40291L8.45448 5.05756L8.13105 5.34974C7.57643 5.8508 7.52446 5.86349 5.77551 5.92342C3.90098 5.98763 3.5218 6.07486 2.70829 6.62921C-0.0818053 8.53032 0.692702 12.8872 3.9642 13.6945C4.62374 13.8573 4.64483 13.9166 4.23412 14.4546C3.83072 14.9831 3.83248 14.9634 3.86159 18.6726L3.8873 21.9477L4.15294 22.2773C4.29905 22.4587 4.56936 22.6937 4.7537 22.7995L5.08888 22.992L12.8563 22.9712C12.8563 22.9712 17.7381 23.0482 20.6236 22.9504C20.7318 22.9467 21.1108 22.7221 21.1108 22.7221C22.16 22.1694 22.9374 21.2118 22.9494 19.5602C22.954 18.9229 22.9319 18.9099 22.9015 18.8187C22.8741 18.7363 22.8448 18.6444 22.7246 18.376C22.6386 18.1838 22.3703 17.7684 22.1284 17.4528C21.7304 16.9335 21.7009 16.8653 21.818 16.7359C22.2426 16.2668 22.3028 15.8983 22.3134 13.7048C22.3243 11.4586 22.2992 11.2987 21.85 10.7629L21.6341 10.5054L22.1443 9.43254C22.8681 7.91006 22.9929 7.36472 22.9694 5.82779C22.9589 5.14331 22.9232 4.67987 22.8899 4.79786C22.8438 4.96138 22.8273 4.97308 22.8208 4.84702C22.7551 3.5776 20.7289 1.58645 19.0664 1.15751C18.1212 0.913674 14.1626 0.964813 13.5197 1.22913ZM18.8089 1.92905C20.7698 2.43171 22.2115 4.29031 22.2115 6.31567C22.2115 7.11924 22.0488 7.68595 21.4295 9.03991L20.9032 10.1903L20.4396 10.2191L19.976 10.2479L19.8127 9.81123C19.723 9.57108 19.6126 9.17185 19.5676 8.92406L19.4857 8.47347L19.8401 8.31918C21.5813 7.56104 21.0355 5.0373 19.1757 5.24696L18.7985 5.28948L18.6932 4.93639C18.3725 3.86158 17.5661 3.62615 15.8583 4.10882C14.2499 4.56336 14.0391 4.59588 13.887 4.41264C13.7261 4.21879 13.8617 4.00731 14.2153 3.90036C14.6256 3.77639 14.6353 3.08131 14.2268 3.08131C13.4943 3.08131 12.9933 3.60545 13.0538 4.30838C13.0894 4.72167 13.4324 5.22697 13.6771 5.22702C13.7634 5.22702 13.7582 5.96204 13.6712 6.06712C13.6599 6.08074 13.4823 5.96341 13.2764 5.80637C11.9449 4.79083 12.2332 2.68081 13.8004 1.97228C14.3201 1.73729 17.9388 1.70603 18.8089 1.92905ZM17.6801 4.87432C17.9428 5.10903 17.9602 5.16204 18.0033 5.85954L18.0488 6.59669L18.6795 6.29496C19.5392 5.88371 20.0658 6.072 20.0658 6.79076C20.0658 7.228 19.7987 7.49243 19.1734 7.67419L18.6925 7.81399L18.694 8.25848C18.6959 8.82771 18.8903 9.74487 19.1183 10.2602L19.2963 10.6627L19.1017 10.8741C18.9204 11.0709 18.4578 11.3208 18.2746 11.3208C18.2305 11.3208 18.1559 11.2145 18.1089 11.0847C18.0619 10.9549 17.997 10.7835 17.9647 10.7039C17.92 10.594 17.9905 10.5159 18.2569 10.3799L18.6081 10.2008L18.434 9.85957C18.2241 9.44825 18.3059 9.45045 17.5532 9.836C16.7257 10.2598 16.1091 10.2824 15.4778 9.91181L15.0526 9.66215L15.504 9.51499C16.5179 9.18448 17.0917 8.0593 16.2465 8.0593C15.9788 8.0593 15.8603 8.09501 15.8603 8.17553C15.8603 8.6253 14.5926 9.03573 14.5625 8.59575C14.5101 7.82931 14.5098 5.60961 14.562 5.46827C14.6151 5.32485 14.8553 5.22241 15.738 4.96688C17.1317 4.56336 17.3219 4.5543 17.6801 4.87432ZM8.60559 6.51012C9.24272 7.74225 8.3004 8.74592 6.50651 8.74592C5.3687 8.74592 5.01814 8.83634 4.72844 9.20464C4.63236 9.32681 4.52932 9.40228 4.49949 9.3724C4.46961 9.34257 4.44516 9.35833 4.44516 9.4075C4.44516 9.45666 4.32602 9.52076 4.18046 9.54987C2.77113 9.83172 2.76421 11.9674 4.17139 12.3463C4.68735 12.4852 4.73442 13.0069 4.22358 12.924C2.35723 12.6212 1.20119 10.201 2.11659 8.51313C2.85951 7.14335 3.47604 6.84569 5.73431 6.76648C7.28409 6.71215 7.44179 6.69172 7.83712 6.49408C8.40141 6.21202 8.45195 6.21306 8.60559 6.51012ZM7.96017 10.503C8.15138 12.2185 7.62356 13.0293 6.31189 13.0354L5.90426 13.0373V13.3806C5.90426 13.7157 5.89706 13.7239 5.60385 13.7239H5.30344V12.6511V11.5783H4.81544C4.23171 11.5782 3.9302 11.3631 3.9302 10.9466C3.9302 10.5076 4.21891 10.2908 4.80342 10.2908C5.29707 10.2908 5.30344 10.2877 5.30344 10.0439C5.30344 9.66973 5.44719 9.61271 6.46723 9.58256C6.98368 9.56734 7.50617 9.54663 7.62834 9.53658C7.8497 9.51845 7.85075 9.52159 7.96017 10.503ZM17.3416 11.3338L17.5007 11.7214L17.2251 12.0146C16.5869 12.6936 16.387 13.8644 16.7753 14.6492L16.9541 15.0106L16.6003 15.1019C16.4056 15.1521 16.1788 15.2128 16.0962 15.2368C15.8829 15.2987 15.904 15.0622 16.1615 14.5093C16.4308 13.9307 16.4384 13.9746 16.0248 13.7227C14.7641 12.955 15.1566 11.1754 16.632 10.9697C17.1614 10.8959 17.162 10.8962 17.3416 11.3338ZM20.9321 11.1104C21.4097 11.3573 21.5242 11.6757 21.5245 12.7584L21.5249 13.7239H20.4949H19.465V12.7999C19.465 11.3299 20.0512 10.6548 20.9321 11.1104ZM18.6925 13.3229V14.5527L18.2445 14.6561C17.7153 14.7783 17.5594 14.6532 17.4165 13.9915C17.2472 13.2075 17.9338 12.1337 18.6282 12.0966C18.6636 12.0948 18.6925 12.6466 18.6925 13.3229ZM6.24757 14.7156C6.36556 14.777 6.78077 15.1495 7.17017 15.5434L7.87827 16.2594L7.10585 17.0282L6.33348 17.7971L5.5977 17.0694C4.72717 16.2084 4.58095 15.9683 4.64341 15.5028C4.74777 14.7247 5.52871 14.3415 6.24757 14.7156ZM21.5114 15.1342C21.4523 16.3047 20.9913 16.7186 19.3951 17.0342C17.9427 17.3214 15.3083 17.8197 14.6501 17.9319C13.9556 18.0502 13.5519 17.9175 13.2876 17.484C12.7205 16.5538 13.6435 15.681 14.7216 16.1278L15.193 16.3232L17.0667 15.8112L18.9404 15.2992L19.2317 15.5905L19.523 15.8819L19.7944 15.6535C20.1377 15.3647 20.1344 15.2833 19.7654 14.9255C19.3542 14.527 19.3372 14.5364 20.5043 14.5147L21.5437 14.4954L21.5114 15.1342ZM12.125 15.5399C12.3597 15.8188 12.3667 16.1042 12.1454 16.3708C12.0256 16.5153 9.29572 17.883 8.96933 17.9622C8.69683 18.0283 8.16879 17.9075 7.91853 17.7218C7.54797 17.4468 8.55104 16.6516 9.76823 16.2552C10.6745 15.9602 10.8263 15.8824 11.0575 15.5948C11.4064 15.1606 11.7893 15.1409 12.125 15.5399ZM12.4211 17.6358C12.4244 17.6868 11.9154 17.9165 11.2899 18.1464C10.1441 18.5674 9.59482 18.9254 9.59482 19.2512C9.59482 19.3663 9.47683 19.3885 8.86529 19.3885H8.13578V19.0667V18.7448L8.75802 18.7433C9.36752 18.7418 9.41014 18.7267 10.8393 18.0057C12.3269 17.2552 12.3952 17.2392 12.4211 17.6358ZM6.32354 18.8736C6.38715 18.8736 6.58506 18.7187 6.7633 18.5294C7.21642 18.0483 7.3633 18.1243 7.3633 18.8398V19.3885H5.99006H4.61682V18.3388V17.2891L5.41231 18.0814C5.84988 18.5171 6.25993 18.8736 6.32354 18.8736ZM21.5166 18.0042C22.658 19.5438 22.371 21.1513 20.8053 21.9889C20.4799 22.163 12.8563 22.3575 12.8563 22.1918C12.8563 22.1721 12.9142 22.0173 12.985 21.8478C13.5185 20.5708 12.5233 19.3915 10.9086 19.3872C10.2742 19.3856 10.3575 19.3333 11.8039 18.825L12.9444 18.4243L13.3907 18.6163C13.7462 18.7692 13.9425 18.7995 14.3551 18.7653C15.1263 18.7013 20.4115 17.6881 20.7095 17.5472C20.8511 17.4803 20.9923 17.423 21.0232 17.42C21.0541 17.4169 21.2761 17.6798 21.5166 18.0042ZM11.7986 20.3811C12.3841 20.8093 12.448 21.5001 11.9457 21.9722L11.7269 22.1779L8.55961 22.2024C4.59803 22.233 4.61682 22.2396 4.61682 20.8142V20.1715L8.08656 20.1877C11.4436 20.2034 11.5642 20.2096 11.7986 20.3811Z" fill="black"/>
</svg>
