<svg width="24" height="24" viewBox="0 0 24 24" fill="none" xmlns="http://www.w3.org/2000/svg">
<path d="M10.7249 1.59374C7.61245 2.15624 5.13745 4.35937 4.27495 7.33125C4.15307 7.7625 4.02182 8.39062 3.98432 8.7375C3.92807 9.23437 3.8812 9.375 3.75932 9.375C3.4687 9.375 2.65307 9.92812 2.1937 10.425C1.02182 11.7187 0.62807 13.7531 1.20932 15.5812C1.5937 16.8 2.58745 17.9062 3.57182 18.2344C3.93745 18.3562 4.0312 18.45 4.1812 18.7781C4.46245 19.3969 5.2312 20.0906 6.11245 20.5219C6.9562 20.9437 8.50307 21.375 9.14995 21.375C9.37495 21.375 9.59995 21.4312 9.64682 21.4875C10.4437 22.4812 10.5562 22.5281 12.2062 22.4812C13.4906 22.4531 13.6687 22.3875 14.0999 21.8062C14.3812 21.4312 14.3812 20.1 14.0999 19.725C13.6499 19.1156 13.5187 19.0781 11.9999 19.0781C10.4531 19.0781 10.2937 19.1344 9.89057 19.7625C9.71245 20.0531 9.6937 20.0625 9.18745 20.0062C7.80932 19.8469 6.5062 19.3406 5.8312 18.6844L5.40932 18.2906L5.69057 18.0562C6.18745 17.6344 6.19682 17.5781 6.1687 13.6969L6.14057 10.1156L5.74682 9.74062C5.2687 9.3 5.24057 9.05625 5.5312 7.93125C6.12182 5.60625 8.0437 3.68437 10.3687 3.09374C11.9156 2.7 13.6406 2.90625 15.1218 3.675C16.6968 4.49062 18.0187 6.16875 18.4687 7.93125C18.7593 9.05625 18.7312 9.3 18.2624 9.74062L17.8593 10.1156L17.8312 13.7531L17.8031 17.4L18.0187 17.7281C18.1406 17.8969 18.4218 18.1406 18.6562 18.2625C19.4906 18.6937 20.7749 18.3281 21.6843 17.4187C23.4656 15.6094 23.5218 12.3094 21.8062 10.425C21.3468 9.92812 20.5312 9.375 20.2406 9.375C20.1187 9.375 20.0718 9.23437 20.0156 8.7375C19.6687 5.48437 17.3718 2.75624 14.2031 1.82812C13.2656 1.54687 11.5874 1.44374 10.7249 1.59374ZM4.82807 13.8281V17.0156L4.52807 17.0437C3.89057 17.1094 3.0937 16.4625 2.65307 15.5156C2.40932 15 2.39057 14.8687 2.39057 13.8281C2.39057 12.7406 2.39995 12.675 2.69995 12.075C3.15932 11.1469 3.89995 10.575 4.5937 10.6219L4.82807 10.6406V13.8281ZM20.3906 10.95C20.8687 11.2781 21.3374 11.9719 21.5249 12.6375C21.7593 13.4437 21.6749 14.7937 21.3468 15.5156C20.9062 16.4531 20.1093 17.1094 19.4718 17.0437L19.1718 17.0156L19.1437 13.9219C19.1343 12.225 19.1437 10.7719 19.1718 10.6969C19.2468 10.5 19.9499 10.6406 20.3906 10.95ZM12.9374 20.7656V21.0937H11.9999H11.0624V20.7656V20.4375H11.9999H12.9374V20.7656Z" fill="black"/>
</svg>
