<svg width="24" height="24" viewBox="0 0 24 24" fill="currentColor" xmlns="http://www.w3.org/2000/svg">
<path d="M10.9219 0.890621C8.8594 1.34062 7.26565 2.75625 6.61877 4.70625C6.44065 5.25 6.33752 5.94375 6.15002 8.0625C6.0094 9.53437 5.90627 10.9875 5.90627 11.3062C5.90627 12.3 6.29065 13.3031 6.95627 14.025L7.34065 14.4375L7.06877 14.9344L6.7969 15.4219L6.76877 17.8594L6.74065 20.2969L6.39377 20.4844C5.90627 20.7469 5.57815 21.4125 5.66252 21.9844C5.7469 22.5187 6.17815 22.9969 6.73127 23.1562C7.8094 23.4844 8.8594 22.4344 8.53127 21.3562C8.40939 20.9437 7.87502 20.3437 7.63127 20.3437C7.51877 20.3437 7.50002 20.0344 7.50002 18.4875V16.6312L8.23127 16.2844C8.62502 16.0969 8.98127 15.9375 9.0094 15.9375C9.0469 15.9375 9.69377 16.6312 10.4438 17.4844C11.325 18.4781 11.8875 19.0312 12 19.0312C12.1125 19.0312 12.675 18.4781 13.5563 17.4844C14.3156 16.6312 14.9813 15.9375 15.0469 15.9375C15.1031 15.9375 15.1969 15.9844 15.2531 16.0406C15.4313 16.2187 15.7969 16.0969 15.825 15.8531C15.8531 15.6844 15.7594 15.5437 15.4688 15.2906C15.1875 15.0469 15.075 14.8594 15.0281 14.5969L14.9719 14.2406L15.2438 14.3437C16.0594 14.6625 16.5 15.3562 16.5 16.3406C16.5 16.9312 16.4906 16.9687 16.2938 16.9687C15.975 16.9687 15.1406 17.4844 14.8781 17.8312C14.325 18.5719 14.3063 18.675 14.2688 20.5406C14.2406 22.0219 14.2594 22.3312 14.3906 22.5844C14.6813 23.1562 15.45 23.4281 15.6938 23.0344C15.8156 22.8375 15.675 22.5656 15.4125 22.5094C15.0188 22.4437 15 22.35 15 20.6719C15 19.1625 15.0188 19.0312 15.2156 18.6469C15.3375 18.4219 15.6188 18.1031 15.8344 17.9531C16.1813 17.7094 16.3125 17.6719 16.875 17.6719C17.4375 17.6719 17.5688 17.7094 17.9156 17.9531C18.1313 18.1031 18.4125 18.4219 18.5344 18.6469C18.7313 19.0312 18.75 19.1625 18.75 20.6719C18.75 22.35 18.7313 22.4437 18.3375 22.5094C18.075 22.5656 17.9344 22.8375 18.0563 23.0344C18.3 23.4281 19.0688 23.1562 19.3594 22.5844C19.4906 22.3312 19.5094 22.0219 19.4813 20.5406C19.4438 18.675 19.425 18.5719 18.8719 17.8312C18.6188 17.4937 17.775 16.9687 17.475 16.9687C17.2969 16.9687 17.2688 16.9031 17.2313 16.1906C17.2031 15.7594 17.1375 15.3187 17.0813 15.225C16.9969 15.0562 17.0625 15 17.6813 14.6812C18.4875 14.2687 19.3406 13.4719 19.6875 12.8156C19.9688 12.2906 19.8938 12.075 19.3781 11.9906C19.2 11.9625 18.9375 11.8687 18.8063 11.7844C18.3 11.4469 18.2625 11.2875 17.9813 8.50312C17.6063 4.78125 17.475 4.25624 16.5656 3.02812C15.3 1.32187 12.975 0.44062 10.9219 0.890621ZM13.2094 1.64062C14.8969 2.04375 16.3313 3.43125 16.8188 5.15625C16.8938 5.4375 17.0906 6.91875 17.2406 8.4375C17.4 9.96562 17.5594 11.325 17.6156 11.4562C17.7469 11.8125 18.2625 12.3562 18.6375 12.5531L18.9563 12.7219L18.4781 13.2C18.2156 13.4625 17.6906 13.8469 17.325 14.0531L16.65 14.4281L16.3781 14.1937C16.0125 13.8844 15.4313 13.5937 15.1875 13.5937C15.0094 13.5937 15 13.5375 15 12.7031C15 11.9719 15.0375 11.7281 15.1969 11.4187C15.3094 11.2031 15.4688 10.8094 15.5625 10.5375C15.6563 10.275 15.8813 9.8625 16.0594 9.62812C16.4813 9.075 16.6688 8.31562 16.5188 7.8C16.3031 7.07812 15.7031 6.72187 15.4406 7.14375C15.3656 7.26562 15.3938 7.37812 15.5906 7.65937C15.7313 7.86562 15.8438 8.1375 15.8438 8.2875C15.8438 8.5875 15.6281 9.04687 15.3281 9.375C15.2063 9.50625 15.0188 9.88125 14.9063 10.2187C14.2781 12.1031 13.0406 13.5 12 13.5C10.9594 13.5 9.72189 12.1031 9.09377 10.2187C8.98127 9.88125 8.79377 9.50625 8.6719 9.375C8.11877 8.775 8.01565 8.11875 8.39065 7.66875C8.66252 7.35 8.68127 7.2 8.4844 7.03125C8.1469 6.75 7.5844 7.25625 7.44377 7.95C7.3594 8.39062 7.57502 9.15 7.93127 9.60937C8.10002 9.84375 8.40002 10.4156 8.58752 10.8937C8.87814 11.625 8.94377 11.9062 8.97189 12.6375C9.0094 13.4062 8.99064 13.5094 8.84065 13.5562C8.7469 13.5844 8.49377 13.6875 8.28752 13.7812L7.90315 13.95L7.56565 13.6125C6.99377 13.0125 6.7219 12.3469 6.67502 11.4375C6.61877 10.2562 7.06877 5.57812 7.31252 4.9125C8.02502 2.87812 9.88127 1.52812 12 1.50937C12.3375 1.50937 12.8813 1.56562 13.2094 1.64062ZM10.9688 13.9781C11.2781 14.1375 11.55 14.1937 12 14.1937C12.7031 14.1937 13.1906 13.9875 13.8281 13.3969L14.2313 13.0312L14.2875 13.9875C14.3156 14.5219 14.3531 15.0656 14.3625 15.1969C14.3813 15.3844 14.1563 15.7031 13.2188 16.7625C12.5813 17.4937 12.0281 18.0937 12 18.0937C11.9719 18.0937 11.4094 17.475 10.7438 16.725L9.54377 15.3656L9.64689 14.9531C9.70315 14.7281 9.75002 14.1937 9.75002 13.7625V12.9937L10.1531 13.3781C10.3688 13.5844 10.7344 13.8562 10.9688 13.9781ZM8.96252 14.6531C8.9344 14.8312 8.81252 15.0562 8.69064 15.1594C8.46565 15.3656 7.75314 15.75 7.60315 15.75C7.46252 15.75 7.64065 15.3094 7.9219 14.9437C8.12814 14.6719 8.89689 14.2031 8.98127 14.2969C9.00002 14.3156 9.00002 14.475 8.96252 14.6531ZM7.64065 21.2344C8.1094 21.6937 7.78127 22.5 7.12502 22.5C6.74065 22.5 6.37502 22.1344 6.37502 21.75C6.37502 21.3656 6.74065 21 7.12502 21C7.30315 21 7.50002 21.0844 7.64065 21.2344Z" fill="currentColor"/>
<path d="M13.2562 3.4875C13.2187 3.54375 13.0687 3.83438 12.9187 4.13438C12.4218 5.12813 11.3906 5.86875 9.95621 6.24375C9.60933 6.32813 9.27183 6.45 9.21558 6.49688C9.05621 6.61875 9.06558 6.89063 9.23433 7.03125C9.59058 7.33125 11.8312 6.43125 12.6562 5.6625C12.9187 5.41875 13.125 5.26875 13.125 5.31563C13.125 5.475 14.0906 6.43125 14.4187 6.6C14.8031 6.79688 15.0937 6.72188 15.0937 6.43125C15.0937 6.27188 14.9437 6.10313 14.5968 5.84063C14.325 5.63438 13.9875 5.2875 13.8375 5.07188L13.5562 4.67813L13.7343 4.17188C13.875 3.75938 13.8843 3.6375 13.7812 3.51563C13.6406 3.34688 13.35 3.32813 13.2562 3.4875Z" fill="currentColor"/>
<path d="M5.15625 16.8469C4.65 17.0625 3.73125 17.7562 3.4125 18.15C2.54062 19.2562 2.30625 20.0062 2.29688 21.7406C2.29688 22.9219 2.31562 23.1 2.46562 23.1937C2.57812 23.2688 2.67187 23.2688 2.79375 23.1937C2.925 23.1 2.9625 22.8844 3 21.6844C3.04687 20.2875 3.05625 20.2781 3.40312 19.5562C3.83437 18.7031 4.425 18.075 5.25937 17.625C5.7 17.3812 5.86875 17.2312 5.8875 17.0719C5.925 16.8562 5.775 16.6875 5.57812 16.6969C5.53125 16.6969 5.33437 16.7625 5.15625 16.8469Z" fill="currentColor"/>
<path d="M19.5 17.7094C19.3688 17.9625 19.3594 17.9344 19.7813 18.375C20.6719 19.3031 20.925 20.0062 20.9906 21.7406C21.0375 22.8844 21.075 23.1094 21.2156 23.1937C21.3281 23.2688 21.4219 23.2688 21.5438 23.1937C21.7875 23.0344 21.7781 20.6156 21.525 19.875C21.2906 19.1625 20.8875 18.4875 20.4094 17.9719C19.9688 17.5031 19.6688 17.4094 19.5 17.7094Z" fill="currentColor"/>
</svg>
