<svg width="32" height="32" viewBox="0 0 32 32" fill="none" xmlns="http://www.w3.org/2000/svg">
<g clip-path="url(#clip0_23_49)">
<path fill-rule="evenodd" clip-rule="evenodd" d="M16 2.66666C19.1826 2.66666 22.2348 3.93095 24.4853 6.18138C26.7357 8.43182 28 11.4841 28 14.6667C28 18.7653 25.7653 22.12 23.4107 24.5267C22.2342 25.7161 20.9506 26.7944 19.576 27.748L19.008 28.1347L18.7413 28.312L18.2387 28.632L17.7907 28.9053L17.236 29.228C16.8595 29.4429 16.4335 29.5559 16 29.5559C15.5665 29.5559 15.1405 29.4429 14.764 29.228L14.2093 28.9053L13.516 28.4787L13.26 28.312L12.7133 27.948C11.2304 26.9447 9.8492 25.7988 8.58933 24.5267C6.23467 22.1187 4 18.7653 4 14.6667C4 11.4841 5.26428 8.43182 7.51472 6.18138C9.76515 3.93095 12.8174 2.66666 16 2.66666ZM16 5.33333C13.5246 5.33333 11.1507 6.31666 9.40034 8.067C7.65 9.81734 6.66667 12.1913 6.66667 14.6667C6.66667 17.7627 8.36267 20.48 10.4947 22.6613C11.4114 23.5893 12.4022 24.441 13.4573 25.208L14.068 25.6427C14.2653 25.7804 14.4551 25.9084 14.6373 26.0267L15.1573 26.36L15.6147 26.6387L16 26.864L16.6067 26.5053L17.096 26.1987C17.3564 26.0333 17.6351 25.848 17.932 25.6427L18.5427 25.208C19.5978 24.441 20.5886 23.5893 21.5053 22.6613C23.6373 20.4813 25.3333 17.7627 25.3333 14.6667C25.3333 12.1913 24.35 9.81734 22.5997 8.067C20.8493 6.31666 18.4754 5.33333 16 5.33333ZM16 9.33333C17.4145 9.33333 18.771 9.89523 19.7712 10.8954C20.7714 11.8956 21.3333 13.2522 21.3333 14.6667C21.3333 16.0812 20.7714 17.4377 19.7712 18.4379C18.771 19.4381 17.4145 20 16 20C14.5855 20 13.229 19.4381 12.2288 18.4379C11.2286 17.4377 10.6667 16.0812 10.6667 14.6667C10.6667 13.2522 11.2286 11.8956 12.2288 10.8954C13.229 9.89523 14.5855 9.33333 16 9.33333ZM16 12C15.2928 12 14.6145 12.2809 14.1144 12.781C13.6143 13.2811 13.3333 13.9594 13.3333 14.6667C13.3333 15.3739 13.6143 16.0522 14.1144 16.5523C14.6145 17.0524 15.2928 17.3333 16 17.3333C16.7072 17.3333 17.3855 17.0524 17.8856 16.5523C18.3857 16.0522 18.6667 15.3739 18.6667 14.6667C18.6667 13.9594 18.3857 13.2811 17.8856 12.781C17.3855 12.2809 16.7072 12 16 12Z" fill="black"/>
</g>
<defs>
<clipPath id="clip0_23_49">
<rect width="32" height="32" fill="white"/>
</clipPath>
</defs>
</svg>
