<svg width="24" height="24" viewBox="0 0 24 24" fill="currentColor" xmlns="http://www.w3.org/2000/svg">
<path d="M7.78125 1.45313C6.06563 1.94063 5.01563 3.14062 4.77188 4.92188C4.63125 5.89688 4.75313 6.49688 5.30625 7.575C5.89688 8.74688 6.50625 9.525 8.00625 11.0156C9.21563 12.2156 11.1844 13.8563 11.6906 14.0906C12.0188 14.2406 12.2906 14.1094 13.4063 13.275C15.6094 11.6156 17.1094 10.125 18.2063 8.46563C19.0406 7.21875 19.3781 6.15 19.2563 5.10938C19.1063 3.72188 18.5344 2.69063 17.5688 2.04375C16.8 1.51875 16.1719 1.35938 14.9531 1.35938C14.025 1.35938 13.8656 1.3875 13.3781 1.6125C13.0781 1.75313 12.6469 2.00625 12.4219 2.16563L12 2.46563L11.5781 2.16563C10.7531 1.575 10.1625 1.36875 9.1875 1.34063C8.60625 1.32188 8.11875 1.35938 7.78125 1.45313ZM10.4063 2.45625C10.6875 2.59688 11.1281 2.87813 11.3813 3.09375C11.625 3.3 11.9063 3.46875 11.9906 3.46875C12.0844 3.46875 12.3938 3.28125 12.6844 3.05625C13.4906 2.42813 14.0063 2.2125 14.775 2.175C16.0031 2.10938 17.2219 2.59688 17.7469 3.35625C18.2813 4.125 18.5344 5.2875 18.3563 6.13125C18 7.84688 15.9844 10.2563 13.0875 12.4406C12.5719 12.825 12.1031 13.1625 12.0281 13.1906C11.8219 13.275 9.95625 11.7375 8.52188 10.3125C6.45938 8.25 5.60625 6.85313 5.60625 5.5125C5.60625 4.36875 6.02813 3.44063 6.80625 2.85C7.74375 2.12813 9.38438 1.95 10.4063 2.45625Z" fill="currentColor"/>
<path d="M0.909375 9.40312C0.45 9.68437 0.1875 10.0875 0.1875 10.5094C0.1875 10.8469 1.15313 13.7812 1.86563 15.5719C2.55 17.325 2.65313 17.4281 5.40938 19.1437L6.9375 20.0906V20.7562C6.9375 21.1219 6.99375 21.525 7.05938 21.6562C7.21875 21.975 7.54688 22.0125 7.73438 21.7219C7.85625 21.525 7.875 21.3281 7.81875 20.5312L7.75313 19.575L7.41563 19.3687C7.22813 19.2562 6.36563 18.7219 5.49375 18.1781C4.6125 17.6437 3.72188 17.025 3.50625 16.8C3.04688 16.3406 2.56875 15.2156 1.575 12.2531C0.946875 10.3687 0.9375 10.2656 1.43438 10.0875C1.86563 9.92812 2.08125 10.1812 2.5125 11.3719C2.72813 11.9625 2.90625 12.5906 2.90625 12.75C2.90625 12.9187 2.99063 13.1906 3.09375 13.35C3.3 13.6875 5.6625 15.9375 5.8125 15.9375C5.94375 15.9375 6.28125 15.5812 6.28125 15.4406C6.28125 15.3844 5.70938 14.775 5.01562 14.1094C4.32188 13.4344 3.75 12.8531 3.75 12.8156C3.75 12.6562 3.94688 12.375 4.13438 12.2812C4.29375 12.1875 4.43438 12.2812 5.23125 13.0312C6.3 14.0344 6.675 14.2781 7.5 14.4844C8.27813 14.6812 8.5875 14.8781 9.19688 15.5437C10.0969 16.5281 10.3125 17.3625 10.3125 19.8844C10.3125 21.9094 10.35 22.0687 10.8281 22.0125C11.1094 21.9844 11.1094 21.975 11.1844 21.2344C11.2219 20.8219 11.2406 19.8937 11.2219 19.1719C11.1562 17.1469 10.8 16.0406 9.84375 14.9719C9.19688 14.2594 8.67188 13.9031 7.95 13.725C7.05 13.4906 6.72188 13.2844 5.67188 12.2719C4.62188 11.2687 4.40625 11.175 3.80625 11.4844C3.65625 11.5687 3.525 11.6156 3.51563 11.6062C3.50625 11.5875 3.40313 11.3062 3.28125 10.9687C2.9625 10.05 2.69063 9.62812 2.26875 9.39375C1.79063 9.13125 1.35938 9.13125 0.909375 9.40312Z" fill="currentColor"/>
<path d="M21.6094 9.36563C21.1125 9.675 20.9438 9.9375 20.4938 11.175L20.325 11.625L20.0625 11.4844C19.7344 11.3156 19.3781 11.3063 19.0969 11.4469C18.9844 11.5125 18.4688 11.9625 17.9531 12.4688C17.0063 13.3875 16.725 13.5469 15.7969 13.7344C15.0656 13.875 13.7625 15.0656 13.3031 15.9844C12.7781 17.0625 12.6562 17.8125 12.6562 19.9219C12.6562 21.9 12.6844 22.0312 13.0781 22.0312C13.4719 22.0312 13.5 21.9 13.5 19.9594C13.5 18.2625 13.5188 18.0469 13.7344 17.2969C14.0344 16.2563 14.1281 16.0969 14.7375 15.4594C15.3094 14.8688 15.6375 14.6719 16.3688 14.475C17.2031 14.2594 17.625 13.9875 18.5719 13.0688C19.0594 12.5813 19.5094 12.1875 19.5563 12.1875C19.6969 12.1875 20.0625 12.6 20.0625 12.7594C20.0625 12.8438 19.5188 13.4438 18.8438 14.1C17.5688 15.3563 17.4094 15.6281 17.8219 15.8438C18.0844 15.9938 18.2906 15.8438 19.6594 14.5031C20.4938 13.6875 20.8406 13.2844 20.9062 13.05C20.9531 12.8719 20.9719 12.6844 20.9438 12.6469C20.9156 12.6 21.0656 12.0938 21.2812 11.5125C21.7875 10.1063 22.1906 9.74063 22.6688 10.2469L22.875 10.4625L22.2281 12.375C21.15 15.5813 20.85 16.275 20.3531 16.7813C20.1094 17.025 19.2094 17.6625 18.2812 18.2344C17.3813 18.7875 16.5 19.35 16.3406 19.4719L16.0313 19.6969V20.7188C16.0313 21.6375 16.05 21.75 16.2094 21.8438C16.4625 21.975 16.5563 21.9656 16.725 21.7875C16.8375 21.6844 16.875 21.45 16.875 20.8781V20.1094L18.6281 19.0313C20.775 17.7094 21.1781 17.3531 21.6 16.4625C21.9844 15.6563 22.6969 13.7531 23.2875 11.9156C23.775 10.4438 23.775 10.2281 23.3719 9.74063C22.9031 9.1875 22.1625 9.01875 21.6094 9.36563Z" fill="currentColor"/>
</svg>
