<svg width="32" height="32" viewBox="0 0 32 32" fill="none" xmlns="http://www.w3.org/2000/svg">
<path d="M16 2.66666C14.5855 2.66666 13.2289 3.22857 12.2287 4.22876C11.2285 5.22896 10.6666 6.58551 10.6666 8C10.6666 9.41448 11.2285 10.771 12.2287 11.7712C13.2289 12.7714 14.5855 13.3333 16 13.3333C17.4145 13.3333 18.771 12.7714 19.7712 11.7712C20.7714 10.771 21.3333 9.41448 21.3333 8C21.3333 6.58551 20.7714 5.22896 19.7712 4.22876C18.771 3.22857 17.4145 2.66666 16 2.66666ZM13.3333 8C13.3333 7.29275 13.6143 6.61448 14.1144 6.11438C14.6145 5.61428 15.2927 5.33333 16 5.33333C16.7072 5.33333 17.3855 5.61428 17.8856 6.11438C18.3857 6.61448 18.6666 7.29275 18.6666 8C18.6666 8.70724 18.3857 9.38552 17.8856 9.88562C17.3855 10.3857 16.7072 10.6667 16 10.6667C15.2927 10.6667 14.6145 10.3857 14.1144 9.88562C13.6143 9.38552 13.3333 8.70724 13.3333 8ZM22.6666 16H9.33331C8.27245 16 7.25503 16.4214 6.50489 17.1716C5.75474 17.9217 5.33331 18.9391 5.33331 20C5.33331 22.976 6.55731 25.36 8.56531 26.9733C10.5413 28.56 13.192 29.3333 16 29.3333C18.808 29.3333 21.4586 28.56 23.4346 26.9733C25.44 25.36 26.6666 22.976 26.6666 20C26.6666 18.9391 26.2452 17.9217 25.4951 17.1716C24.7449 16.4214 23.7275 16 22.6666 16ZM9.33331 18.6667H22.6666C23.0203 18.6667 23.3594 18.8071 23.6095 19.0572C23.8595 19.3072 24 19.6464 24 20C24 22.1787 23.1333 23.7947 21.7653 24.8933C20.3626 26.0187 18.3466 26.6667 16 26.6667C13.6533 26.6667 11.6373 26.0187 10.2346 24.8933C8.86665 23.7947 7.99998 22.1787 7.99998 20C7.99998 19.6464 8.14046 19.3072 8.3905 19.0572C8.64055 18.8071 8.97969 18.6667 9.33331 18.6667Z" fill="black"/>
</svg>
