<svg width="24" height="24" viewBox="0 0 24 24" fill="none" xmlns="http://www.w3.org/2000/svg">
<path fill-rule="evenodd" clip-rule="evenodd" d="M10.837 1.04462C7.82063 1.49598 6.27956 3.36657 6.27956 6.57654C6.27956 8.46735 7.38685 10.0156 9.165 10.611C9.37929 10.6828 9.11633 11.3891 8.82417 11.5264C8.55458 11.6531 8.04307 12.0999 7.93306 12.3048C7.87458 12.4138 6.38723 12.8983 6.10903 12.8991C5.29443 12.9012 3.95957 13.5257 3.29406 14.216C2.59053 14.9458 2.52058 15.1653 2.3865 17.0637C2.33609 17.7775 2.25543 18.8912 2.20714 19.5386C2.02017 22.0477 1.97339 22.8583 2.01307 22.898C2.03571 22.9207 2.20126 22.9514 2.38099 22.9663L2.70771 22.9934L2.7443 22.6694C2.76445 22.4913 2.88525 20.8323 3.01284 18.9828C3.27889 15.1244 3.25399 15.2457 3.90207 14.6534C4.4928 14.1135 5.12118 13.8284 6.09847 13.6569C6.38067 13.6073 6.80162 13.5115 7.03387 13.444C7.57156 13.2877 7.54719 13.2831 7.54719 13.5405C7.54719 13.9146 9.65326 16.127 10.2937 16.4257C11.5531 17.0131 12.9797 16.8299 13.9302 15.9587C14.7632 15.1951 15.9981 13.747 15.9981 13.5336C15.9981 13.2811 15.9623 13.2853 16.5684 13.4662C16.8357 13.546 17.2174 13.6302 17.4166 13.6533C18.5709 13.7873 19.7672 14.5032 20.1637 15.2971C20.3082 15.5865 20.3152 15.6544 20.5233 18.7539C20.5623 19.3349 20.6466 20.4987 20.7106 21.3403C20.7747 22.1819 20.8271 22.8949 20.8271 22.9248C20.8271 22.9872 21.2098 22.9964 21.4237 22.9392C21.5893 22.8949 21.5926 23.0797 21.3685 19.8706C21.1431 16.6446 21.0604 15.6439 20.9989 15.4037C20.7213 14.3198 19.2656 13.1963 17.817 12.9479C17.5802 12.9073 17.3867 12.8592 17.3871 12.8411C17.3875 12.8229 17.4285 12.6587 17.4783 12.4761C17.6575 11.8183 17.6531 11.1675 17.457 9.33718C17.3556 8.39099 17.2571 7.31803 17.238 6.95283C17.1032 4.37328 15.9189 2.31187 14.0974 1.48595C13.259 1.10581 11.7726 0.904573 10.837 1.04462ZM12.8992 1.88095C14.9545 2.26848 16.2782 4.16269 16.486 7.01319C16.5198 7.47799 16.6163 8.49662 16.7004 9.27682C16.9034 11.1625 16.8768 12.4021 16.6278 12.6512C16.568 12.711 15.6645 12.4033 15.6122 12.3054C15.5044 12.1036 14.9884 11.6498 14.7176 11.5186C14.4469 11.3876 14.4385 11.3751 14.374 11.0047C14.2843 10.4899 14.2816 10.5064 14.5103 10.1903C15.3599 9.01635 15.7334 7.4589 15.5217 5.97283C15.4604 5.5432 15.4566 5.54206 14.9263 5.80774C13.6806 6.43175 12.362 5.97887 11.4917 4.62809C11.2098 4.19053 11.2358 4.19181 10.8027 4.59285C10.1593 5.18841 9.4063 5.43771 8.64452 5.30718C8.15271 5.22297 8.17791 5.19769 8.05575 5.897C7.87617 6.92484 8.02481 8.21397 8.42336 9.08441C8.61502 9.50311 8.6077 9.50673 8.20907 9.19035C7.12683 8.33153 6.78774 6.96641 7.18825 5.08157C7.56084 3.32862 8.87247 2.07147 10.5352 1.87393C10.7012 1.85416 10.8483 1.8276 10.8621 1.81493C10.9302 1.7523 12.4842 1.8027 12.8992 1.88095ZM11.5463 5.87331C12.4435 6.73047 13.2937 6.9815 14.5644 6.76442L14.7908 6.72579L14.7898 7.08073C14.7829 9.67371 12.616 11.5798 10.733 10.6492C9.56702 10.0729 8.86643 8.79293 8.77143 7.06548C8.72488 6.21851 8.75098 6.13815 9.07249 6.13702C9.60316 6.13521 10.4796 5.83445 10.8974 5.5109C10.9638 5.45952 11.0286 5.41651 11.0415 5.41545C11.0545 5.4144 11.2816 5.62046 11.5463 5.87331ZM10.3541 11.3077C11.3434 11.8239 12.2239 11.8236 13.197 11.3069C13.4218 11.1875 13.6112 11.0962 13.6179 11.1039C13.8835 11.4101 12.664 13.948 12.122 14.2168C11.8091 14.372 11.6252 14.3615 11.3105 14.17C10.9966 13.9792 9.8259 11.6559 9.87835 11.328C9.89993 11.1933 9.93426 11.0911 9.9547 11.1009C9.97515 11.1107 10.1549 11.2038 10.3541 11.3077ZM10.5549 14.5475C11.0415 15.0655 11.9283 15.206 12.5472 14.8632C12.9966 14.6143 13.1005 14.4694 13.7224 13.2233L14.2715 12.1233L14.4255 12.2039C14.7809 12.3903 15.2086 13.02 15.212 13.3621C15.2134 13.4987 13.5792 15.2998 13.2253 15.5518C12.0922 16.3587 10.8264 16.1281 9.65047 14.901C8.46147 13.6601 8.3132 13.4701 8.35598 13.2419C8.41151 12.946 8.71235 12.5073 9.00526 12.2951L9.26188 12.1092L9.83979 13.2553C10.1575 13.8856 10.4794 14.4671 10.5549 14.5475ZM4.81899 16.6245L4.53543 16.6475L4.56229 16.931C4.57708 17.087 4.65888 18.4777 4.74421 20.0215C4.82948 21.5653 4.91142 22.8657 4.92636 22.9112C4.95322 22.9934 5.56674 22.9878 5.64997 22.9047C5.68128 22.8734 5.53354 20.2436 5.35419 17.6378C5.29669 16.8025 5.26674 16.6113 5.19302 16.6069C5.14322 16.6039 4.97488 16.6118 4.81899 16.6245ZM18.2633 16.6587C18.2507 16.6989 18.1705 17.9269 18.085 19.3877C17.9995 20.8485 17.914 22.2368 17.8951 22.4729L17.8606 22.9021L18.0536 22.9407C18.6695 23.0639 18.6307 23.1428 18.7174 21.5909C18.7555 20.9104 18.8335 19.5386 18.8907 18.5426C18.948 17.5466 18.9793 16.7148 18.9602 16.6942C18.887 16.6147 18.2867 16.5843 18.2633 16.6587ZM8.01259 17.7653C7.98905 17.7889 7.96973 17.9531 7.96973 18.1301V18.4521H7.30573H6.64174V19.6895V20.9269H8.36209H10.0824V19.6895V18.4521H9.42147H8.76049L8.74238 18.105L8.72427 17.7579L8.38986 17.7401C8.20598 17.7304 8.03621 17.7417 8.01259 17.7653ZM11.4104 18.1201V18.5124H11.7726H12.1348V18.1201V17.7277H11.7726H11.4104V18.1201ZM9.34556 19.6744L9.36314 20.1422H8.36466H7.3661V19.6579V19.1735L8.347 19.1901L9.32791 19.2066L9.34556 19.6744ZM11.4413 19.8296C11.4243 19.8466 11.4104 20.019 11.4104 20.2126V20.5648H11.7755H12.1405L12.1226 20.1927L12.1046 19.8206L11.7884 19.8096C11.6145 19.8037 11.4584 19.8126 11.4413 19.8296ZM11.4104 22.2549V22.6171H11.7726H12.1348V22.2549V21.8928H11.7726H11.4104V22.2549Z" fill="black"/>
</svg>
