<svg width="24" height="24" viewBox="0 0 24 24" fill="none" xmlns="http://www.w3.org/2000/svg">
<path fill-rule="evenodd" clip-rule="evenodd" d="M18.9958 2.24011C18.0372 2.66762 17.5395 4.17572 18.0415 5.13199L18.2374 5.50522L17.4882 5.86285C16.5404 6.31515 16.2351 6.68152 15.9677 7.68729C15.6998 8.69507 15.7552 8.65692 15.2036 8.21365C14.9465 8.00706 14.3471 7.65324 13.8715 7.42739L13.0069 7.01675L13.1723 6.62067C13.7118 5.32954 12.8757 3.88588 11.588 3.88506C10.198 3.88416 9.39438 5.36732 10.0033 6.80956C10.0627 6.9503 9.96696 7.02802 9.59821 7.13852C8.72145 7.40118 7.5291 8.77093 5.78866 11.515C4.71495 13.2078 4.83754 14.1557 6.12889 14.1461C6.78338 14.1413 6.85334 14.0793 7.96207 12.5228L8.90482 11.1992L8.90176 13.112C8.90004 14.1931 9.03802 16.7367 9.219 18.962L9.53915 22.8993H11.938V18.453L12.1973 18.6347C12.3399 18.7345 12.5498 18.8162 12.6639 18.8162C12.9698 18.8162 12.9469 19.4016 12.6379 19.4824C12.3054 19.5693 12.3099 20.2132 12.6437 20.3005C12.8588 20.3568 12.8803 20.4442 12.8589 21.1773L12.8351 21.9915L13.9795 23.0001L14.2418 22.7546C14.4666 22.5441 14.4815 22.4826 14.3459 22.325C13.6872 21.559 13.6421 21.4734 13.6096 20.9278C13.5807 20.4431 13.6099 20.3499 13.8067 20.2984C14.1353 20.2125 14.1259 19.634 13.7946 19.5474C13.5065 19.4721 13.567 18.7979 13.8946 18.4329C13.9974 18.3183 14.1111 18.0053 14.1472 17.7372C14.2072 17.2911 14.2488 17.2413 14.6381 17.1494C15.5511 16.9337 15.6053 16.7713 15.671 14.0533L15.7294 11.6417L17.2204 11.6381L17.1609 15.0522C17.106 18.1998 17.1167 18.4663 17.2981 18.4663C17.4606 18.4663 17.5189 18.6736 17.6344 19.662C17.7113 20.3197 17.833 21.3184 17.9049 21.8815L18.0355 22.9054L21.4383 22.841L21.6471 21.1494C21.7618 20.2191 21.8848 19.2347 21.9203 18.962C21.9625 18.6385 22.0432 18.4663 22.1527 18.4663C22.3311 18.4663 22.3358 18.4123 22.3643 16.0164C22.3788 14.8011 22.3813 14.7912 22.6706 14.7575C23.7052 14.6368 23.8975 13.9598 23.6554 11.2917C23.6204 10.9068 23.5226 9.79962 23.4378 8.8314C23.2706 6.92021 23.1569 6.60081 22.5027 6.20293C22.2036 6.02106 22.1294 5.87689 22.016 5.25689C21.5929 2.94342 20.3046 1.65648 18.9958 2.24011ZM20.3957 3.30061L20.731 3.65054H18.6605L18.9958 3.30061C19.2284 3.05788 19.4429 2.95059 19.6958 2.95059C19.9486 2.95059 20.1632 3.05788 20.3957 3.30061ZM20.6874 4.57486C20.6874 5.27183 19.494 5.63528 18.9903 5.09174C18.4927 4.55492 18.5918 4.4672 19.6958 4.4672C20.2412 4.4672 20.6874 4.51565 20.6874 4.57486ZM11.991 4.77294C12.5365 4.98229 12.6879 6.11991 12.2352 6.60835C11.5038 7.39745 10.3601 6.61104 10.6537 5.5209C10.8346 4.84909 11.386 4.54074 11.991 4.77294ZM21.2133 6.6633C21.1223 6.75424 20.7958 6.54787 20.6402 6.30097C20.545 6.1503 20.5937 6.03061 20.8656 5.74593L21.2124 5.383L21.2481 5.98791C21.2677 6.3206 21.2521 6.62455 21.2133 6.6633ZM19.5484 6.21548C19.6655 6.21637 19.8187 6.37712 19.9115 6.59618C20.2772 7.46046 21.4633 7.82713 21.9386 7.22289C22.1919 6.9008 22.3354 6.95911 22.4773 7.44195C22.5307 7.62375 22.9039 11.6786 22.9039 12.0772C22.9039 12.1264 22.8251 12.1667 22.7289 12.1667C22.6327 12.1667 22.5532 12.1011 22.5522 12.0208C22.5508 11.9117 22.5256 11.9141 22.4518 12.0306C22.3171 12.243 22.2037 11.9392 22.2049 11.3697C22.2055 11.1343 22.1425 10.2987 22.0651 9.51269L21.9244 8.08359H21.5392C21.0811 8.08359 21.0961 7.91366 21.3281 10.4751C21.4211 11.5017 21.4987 12.4843 21.5006 12.6586L21.504 12.9756L18.0042 12.9559V10.3214C18.0042 8.71254 17.9624 7.73007 17.8967 7.79779C17.8377 7.85871 17.5436 8.57793 17.2434 9.396C16.6614 10.9817 16.6072 11.0392 15.9682 10.748C15.7144 10.6324 15.671 10.5367 15.671 10.0921C15.671 9.63633 15.6934 9.59012 15.851 9.72092C16.1137 9.93894 16.1966 9.79708 16.5969 8.44436C16.7945 7.77666 17.0214 7.15084 17.101 7.05378C17.3295 6.77559 18.8542 6.09676 19.1125 6.15829C19.2409 6.18882 19.437 6.21458 19.5484 6.21548ZM13.3759 8.12145C13.8636 8.34677 14.3958 8.66424 14.5585 8.827L14.8545 9.12288V14.2666H14.2711L14.2555 12.9541C14.2468 12.2323 14.2304 11.5104 14.219 11.35C14.2076 11.1897 14.1884 10.7303 14.1764 10.3293L14.1545 9.6002H13.3379V13.5666H9.7426L9.73334 11.6236C9.72304 9.46573 9.74955 9.61685 9.37385 9.57354C9.14419 9.54704 8.9535 9.74728 8.21442 10.7905C7.28339 12.105 7.19036 12.1781 6.88261 11.838C6.48413 11.3978 8.98568 8.19394 9.99033 7.85789C10.9674 7.53102 12.3272 7.63689 13.3759 8.12145ZM6.68833 12.7997C6.68833 12.8603 6.57769 13.0276 6.44255 13.1715C5.99652 13.6463 5.66502 13.2136 6.05177 12.6614C6.23297 12.4027 6.68833 12.5016 6.68833 12.7997ZM22.9039 13.4374C22.9039 13.9118 22.6902 14.1228 22.4515 13.8841C22.179 13.6116 22.2912 12.9833 22.6123 12.9833C22.8734 12.9833 22.9039 13.0308 22.9039 13.4374ZM21.5775 14.1317C21.6572 14.556 21.5372 17.5016 21.4334 17.6694C21.4005 17.7227 20.5968 17.7663 19.6474 17.7663H17.9213L17.9429 16.6289C17.9548 16.0033 17.9735 15.0928 17.9844 14.6058L18.0042 13.72L21.5015 13.7264L21.5775 14.1317ZM13.0084 14.451C13.3111 14.5126 13.3217 14.5424 13.3584 15.4408L13.3962 16.367L12.1802 16.3664L12.0547 15.8998C11.9387 15.4694 11.8976 15.4332 11.5252 15.4332H11.1214V22.0827H10.7184C10.2563 22.0827 10.2414 22.0395 10.1365 20.3911C10.1038 19.8778 9.99772 18.5916 9.90074 17.533C9.80368 16.4743 9.72364 15.3387 9.72289 15.0094L9.72147 14.4109L11.2088 14.3991C12.0269 14.3927 12.8367 14.416 13.0084 14.451ZM14.8545 15.7104C14.8545 16.1942 14.5899 16.4659 14.3295 16.2497C13.9832 15.9624 14.1043 15.3165 14.5045 15.3165C14.8242 15.3165 14.8545 15.3504 14.8545 15.7104ZM13.3852 17.4746C13.2152 18.2704 12.5525 18.2213 12.3458 17.3977C12.2692 17.0921 12.2749 17.0889 12.8641 17.1067L13.46 17.1247L13.3852 17.4746ZM19.2875 20.2745V22.0827H18.9958C18.7483 22.0827 18.7014 22.0253 18.686 21.7036C18.6589 21.1421 18.6214 20.8225 18.4834 19.9828C18.2921 18.8181 18.3117 18.6073 18.6167 18.5486C19.3298 18.4113 19.2875 18.3025 19.2875 20.2745ZM20.7374 18.6496C20.904 18.8162 20.9207 18.8162 20.9207 18.6496C20.9207 18.5487 20.9732 18.4663 21.0374 18.4663C21.1809 18.4663 21.1839 18.4063 20.9435 20.3911L20.7457 22.0244L20.1041 22.0982V20.2822C20.1041 18.3393 20.1944 18.1066 20.7374 18.6496Z" fill="black"/>
<path fill-rule="evenodd" clip-rule="evenodd" d="M2.56948 1.08273C1.26343 1.51099 0.629845 2.96854 1.2246 4.17664C1.39729 4.5274 3.65484 6.99035 4.60357 7.863L4.75954 8.00642L5.9118 6.81773C8.26461 4.39025 8.25752 4.39876 8.43006 3.81132C9.02893 1.77223 6.46355 0.095552 4.96352 1.54563L4.77634 1.72654L4.48568 1.50353C3.90847 1.06063 3.14684 0.893314 2.56948 1.08273ZM3.5878 1.8407C3.74197 1.88348 3.97163 2.05222 4.29089 2.35721L4.76492 2.81011L5.23066 2.35684C5.7397 1.86145 5.85707 1.80829 6.4348 1.81165C7.29632 1.81673 7.89735 2.63137 7.69771 3.5235C7.59893 3.96468 7.56653 4.00514 6.07657 5.5446L4.73946 6.92614L4.38003 6.54633C4.18233 6.33743 3.56809 5.7031 3.01507 5.13672C1.88887 3.98342 1.77852 3.81155 1.77852 3.20992C1.77852 2.19355 2.60525 1.56788 3.5878 1.8407ZM4.404 3.9864H3.68725V4.70316H4.404V5.41991H5.12075V4.70316H5.83751V3.9864H5.12673L5.09089 3.29952L4.404 3.26368V3.9864Z" fill="black"/>
</svg>
