<svg width="32" height="32" viewBox="0 0 32 32" fill="none" xmlns="http://www.w3.org/2000/svg">
<g clip-path="url(#clip0_23_50)">
<path fill-rule="evenodd" clip-rule="evenodd" d="M10.896 21.1053C16.0226 26.232 20.7733 26.7933 22.168 26.8453C23.8533 26.9067 25.5733 25.5307 26.3173 24.1213C25.1306 22.7293 23.5853 21.6493 21.8933 20.4787C20.8946 21.476 19.664 23.3293 18.0253 22.6653C17.0933 22.2907 14.792 21.2307 12.7813 19.2187C10.7706 17.2067 9.71065 14.9067 9.33331 13.976C8.66931 12.3347 10.528 11.1013 11.5266 10.1027C10.356 8.38266 9.29465 6.79733 7.90531 5.67066C6.47598 6.41733 5.09198 8.124 5.15465 9.832C5.20665 11.2267 5.76798 15.9773 10.896 21.1053ZM22.0693 29.5107C20.1493 29.44 14.708 28.688 9.00931 22.9907C3.31198 17.292 2.56131 11.852 2.48931 9.93066C2.38265 7.00266 4.62531 4.15866 7.21598 3.048C7.52795 2.91329 7.86958 2.862 8.20735 2.89916C8.54513 2.93633 8.86743 3.06068 9.14265 3.26C11.2866 4.824 12.7653 7.19333 14.036 9.04933C14.3003 9.43527 14.4214 9.90147 14.3783 10.3673C14.3352 10.833 14.1306 11.2691 13.8 11.6L11.992 13.4093C12.412 14.336 13.2666 15.9333 14.6666 17.3333C16.0666 18.7333 17.664 19.588 18.592 20.008L20.3986 18.2C20.7304 17.8679 21.1684 17.6632 21.6359 17.6215C22.1034 17.5798 22.5707 17.7039 22.956 17.972C24.8493 19.284 27.0733 20.7413 28.6946 22.8173C28.9102 23.0945 29.0472 23.4245 29.0916 23.7729C29.1359 24.1212 29.0858 24.475 28.9466 24.7973C27.8306 27.4013 25.0066 29.6187 22.0693 29.5107Z" fill="black"/>
</g>
<defs>
<clipPath id="clip0_23_50">
<rect width="32" height="32" fill="white"/>
</clipPath>
</defs>
</svg>
