<svg width="24" height="24" viewBox="0 0 24 24" fill="none" xmlns="http://www.w3.org/2000/svg">
<path d="M3.56836 18.7252C5.96044 17.9034 7.90104 16.5555 9.27926 14.7639C10.1664 13.6216 10.6892 12.5121 11.0694 10.9834C11.2674 10.1945 11.2911 9.96436 11.2911 8.70694C11.2911 7.46596 11.2674 7.23585 11.109 6.69343C10.7129 5.37848 9.91292 4.25256 8.99411 3.69371C6.86341 2.3952 4.17034 3.04445 3.10896 5.10727C2.35648 6.58659 2.34856 8.69051 3.09312 9.8904C3.58421 10.6876 4.1545 11.0903 5.42975 11.5423C6.21391 11.8217 6.57827 12.0107 6.57827 12.1422C6.57827 12.4381 6.12678 13.1613 5.58817 13.7448C4.84361 14.5585 4.07529 15.1173 2.90302 15.7008L2.00005 16.1528L2.19807 17.0733C2.30104 17.5828 2.43569 18.2157 2.48322 18.4786C2.53866 18.7499 2.61787 18.98 2.65747 18.9882C2.705 19.0046 3.10896 18.8813 3.56836 18.7252ZM3.18025 17.1719C3.13272 16.9007 3.11688 16.6706 3.14856 16.6624C3.18817 16.6459 3.57628 16.4323 4.01193 16.1775C5.83371 15.142 7.18025 13.6709 7.44955 12.4135C7.63173 11.567 7.20401 11.156 5.42975 10.4739C4.38421 10.0712 4.02777 9.77534 3.66341 8.99459C3.46539 8.58367 3.44955 8.46039 3.44955 7.55636C3.44955 6.38935 3.56836 5.94555 4.07529 5.23055C4.82777 4.17037 6.18223 3.7348 7.55252 4.10463C8.81193 4.44158 9.9446 5.81406 10.2298 7.33447C10.3802 8.17275 10.2773 10.0959 10.0238 11.0492C9.34262 13.6216 7.52876 15.783 4.9545 17.0897C4.13866 17.5089 3.39411 17.7965 3.32282 17.7143C3.29906 17.6897 3.23569 17.4431 3.18025 17.1719Z" fill="black"/>
<path d="M14.4434 18.6055C17.588 17.455 19.6712 15.7209 20.9702 13.1649C21.6989 11.7267 21.9999 10.4036 21.9999 8.65303C22.0078 6.7217 21.6197 5.59578 20.5504 4.43698C19.4494 3.24531 17.9999 2.76864 16.4791 3.1056C14.6098 3.51652 13.4613 4.90543 13.2632 7.01757C13.1207 8.40648 13.4375 9.55706 14.1583 10.3625C14.5543 10.8063 15.0217 11.0939 15.8375 11.4144C16.8197 11.7925 17.2949 12.039 17.2949 12.1705C17.2949 12.5897 16.5741 13.6005 15.7662 14.3073C15.1801 14.8333 13.9524 15.6058 13.2712 15.8852C12.9781 16.0085 12.7801 16.14 12.7801 16.2058C12.7801 16.4277 13.287 19.0082 13.3345 19C13.3583 19 13.8573 18.8192 14.4434 18.6055ZM13.9761 17.4632C13.7464 16.6085 13.7306 16.666 14.3722 16.3373C16.1543 15.4086 17.5484 14.0608 18.0632 12.7622C18.4989 11.661 18.19 11.2665 16.2652 10.494C15.1246 10.0337 14.7286 9.72143 14.388 8.98999C14.19 8.57085 14.1662 8.44757 14.1662 7.62573C14.1662 6.60665 14.293 6.0971 14.7207 5.40676C15.0375 4.88078 15.4731 4.49451 16.0276 4.2233C16.4157 4.03428 16.5583 4.00963 17.3821 4.00963C18.2771 4.00963 18.3009 4.01784 18.8949 4.32193C19.9246 4.8479 20.685 5.89164 20.9781 7.18194C21.1286 7.85585 21.1286 9.33516 20.9781 10.2228C20.4316 13.469 18.2692 16.0167 14.7999 17.4961C14.4514 17.644 14.1425 17.7673 14.1108 17.7755C14.0791 17.7755 14.0157 17.6358 13.9761 17.4632Z" fill="black"/>
</svg>
