<svg width="24" height="24" viewBox="0 0 24 24" fill="none" xmlns="http://www.w3.org/2000/svg">
<path fill-rule="evenodd" clip-rule="evenodd" d="M5.92609 1.14298C5.60041 1.29471 5.32646 1.5741 5.19436 1.88928C5.0887 2.14147 5.07412 10.3746 5.17865 10.7512C5.31393 11.2384 5.95321 11.6949 6.50019 11.6949C6.644 11.6949 6.70344 11.7265 6.72663 11.8151C6.74392 11.8812 6.78214 11.9204 6.8116 11.9022C6.84105 11.884 6.86515 12.0594 6.86515 12.2921C6.86515 12.5247 6.82738 12.6768 6.80472 12.7523C6.78962 12.8279 6.78962 12.8792 6.78962 12.9789C6.78962 13.0845 6.78962 13.13 6.78962 13.1678C6.78962 13.2043 6.78962 13.2126 6.78962 13.2811C6.78962 13.4508 6.77746 13.4187 8.15873 12.5107L9.3996 11.6949H13.7537C18.4936 11.6949 18.2897 11.7089 18.7567 11.3527C18.8701 11.2662 19.0276 11.0563 19.1068 10.8863L19.2507 10.5771L19.2513 6.3847C19.252 1.41987 19.2741 1.56488 18.4547 1.1565L18.1406 1L12.1856 1.0006L6.2307 1.00121L5.92609 1.14298ZM18.2687 1.98324L18.4362 2.15076L18.4526 6.24263C18.47 10.5916 18.4719 10.5596 18.1782 10.7906C18.0312 10.9063 17.9102 10.9094 13.5931 10.9094H9.15912L8.38978 11.4235L7.62044 11.9375L7.60299 11.4235L7.58554 10.9094H6.95435C6.34248 10.9094 6.31726 10.9041 6.12594 10.7331L5.92858 10.5569L5.91031 6.42798C5.89021 1.88581 5.88244 1.98996 6.25411 1.8525C6.35238 1.81617 8.61712 1.79819 12.2566 1.80491L18.1012 1.81572L18.2687 1.98324ZM9.724 2.80009C8.30247 3.30938 7.74755 4.98341 8.58819 6.22662C8.70058 6.39279 9.51456 7.26288 10.397 8.16017L12.0015 9.7916L13.606 8.16017C15.6883 6.04278 15.8589 5.77904 15.7947 4.77797C15.6788 2.97146 13.5648 2.0565 12.2249 3.23295L12.0011 3.42947L11.7874 3.24178C11.2223 2.74563 10.3796 2.56519 9.724 2.80009ZM10.9757 3.62932C11.0839 3.68529 11.343 3.90508 11.5517 4.11777C12.0132 4.58854 11.9616 4.58847 12.4357 4.11905C13.3522 3.21157 14.3227 3.28136 14.8557 4.29307C15.2665 5.07276 15.0251 5.59474 13.5707 7.07187C12.9486 7.70367 12.3508 8.32362 12.2424 8.44945C12.1338 8.57535 12.0267 8.67052 12.0044 8.66093C11.8556 8.59726 9.2641 5.856 9.15194 5.64369C8.52029 4.44753 9.80784 3.02539 10.9757 3.62932ZM11.6386 5.35048V5.71302H11.2761H10.9135V6.10577V6.49853H11.2761H11.6386V6.83086V7.16318H12.0011H12.3637V6.83388V6.50457L12.7111 6.48644L13.0585 6.46832L13.0765 6.09067L13.0945 5.71302H12.7291H12.3637V5.35048V4.98794H12.0011H11.6386V5.35048ZM3.61641 12.3395C2.75228 12.6453 2.15356 13.7769 2.35008 14.7327L2.43045 15.1234L2.23453 15.1943C1.90106 15.3148 1.44857 15.7754 1.23248 16.2142L1.03429 16.6166L1.01715 19.8054L1 22.9941H1.39479H1.78958V19.9752C1.78958 16.2662 1.7991 16.2222 2.67071 15.8892C2.9522 15.7817 2.95296 15.7818 3.77585 15.9787C4.84051 16.2333 4.90516 16.2604 5.018 16.4982C5.1495 16.7753 5.13938 16.8155 4.92654 16.8623C4.76173 16.8984 4.74451 16.9217 4.77774 17.0634C5.28477 19.2271 5.57805 20.0252 5.83614 19.9433C5.90003 19.923 6.43644 19.9621 7.02806 20.0302C7.61976 20.0983 8.37067 20.1812 8.69681 20.2145C9.53699 20.3001 9.84281 20.5357 9.3703 20.7331C9.11622 20.8393 5.06181 20.8605 4.86785 20.7566C4.69557 20.6645 4.60576 20.452 4.3578 19.55C4.23454 19.1013 4.07056 18.5303 3.99345 18.2811C3.91633 18.0318 3.79519 17.6294 3.72426 17.3869C3.62064 17.0321 3.57539 16.9516 3.49307 16.9754C3.4368 16.9917 3.27524 17.0349 3.134 17.0713C2.81693 17.1533 2.81663 17.1106 3.14276 18.2387C3.96475 21.0822 4.0683 21.3115 4.63666 21.5469L4.81136 21.6193L4.79595 22.2916L4.78054 22.9639L5.15025 22.9816L5.51997 22.9995L5.56317 22.3321L5.60645 21.6648H5.87322H6.14007V22.3322V22.9996L6.54792 22.9818L6.95578 22.9639L6.94422 22.3206L6.93267 21.6773L8.12248 21.6505C9.69349 21.6151 10.1897 21.4215 10.2882 20.8056L10.3247 20.5772H12.0011H13.6776L13.7141 20.8056C13.8113 21.4136 14.3026 21.6078 15.8682 21.6575L17.0465 21.695L17.0767 22.3295L17.1069 22.9639L17.4846 22.9819L17.8622 22.9998V22.3384V21.677L18.1291 21.6557L18.396 21.6345L18.4386 22.3169L18.4812 22.9993L18.8785 22.9816L19.2757 22.9639L19.2615 22.6014C19.2536 22.402 19.2333 22.0992 19.2164 21.9285L19.1855 21.618L19.4537 21.4882C19.6168 21.4093 19.7895 21.2587 19.8945 21.1038C19.9896 20.9637 20.081 20.8355 20.0977 20.8189C20.1144 20.8022 20.1362 20.7403 20.1462 20.6813C20.1562 20.6223 20.3791 19.8549 20.6417 18.976C20.9042 18.097 21.1272 17.3306 21.1371 17.2728C21.155 17.1692 20.5078 16.8842 20.4305 16.9616C20.4133 16.9787 20.2089 17.6428 19.976 18.4375C19.7432 19.2321 19.5096 20.0289 19.4569 20.2081C19.4043 20.3872 19.2971 20.5979 19.2187 20.6763L19.0762 20.8189H16.9676C14.6963 20.8189 14.4785 20.7948 14.4785 20.5432C14.4785 20.3312 14.6202 20.2859 15.6061 20.1826C17.4673 19.9875 18.417 19.8652 18.4661 19.8142C18.5127 19.7656 19.2519 17.0759 19.2519 16.9546C19.2519 16.9251 19.1681 16.8825 19.0656 16.86C18.9003 16.8237 18.8837 16.801 18.9182 16.6589C18.9964 16.3376 19.175 16.2398 20.0986 16.0124C21.0723 15.7728 21.2031 15.7754 21.6251 16.043C22.1963 16.4052 22.1781 16.287 22.2127 19.8521L22.2429 22.9639L22.6226 22.9819L23.0023 23L22.9851 19.8097L22.968 16.6194L22.8072 16.2765C22.5959 15.8257 22.2317 15.4386 21.8512 15.2604C21.6253 15.1546 21.5535 15.0914 21.5803 15.022C22.0308 13.857 21.2079 12.4023 20.0194 12.2626C18.5861 12.0942 17.6594 13.956 18.4899 15.3352C18.6753 15.643 18.6816 15.6704 18.5812 15.733C18.2548 15.9369 18.1331 16.3326 18.1506 17.133C18.1649 17.7861 18.1453 17.9752 18.0057 18.5302L17.8442 19.172L16.9015 19.2749C16.383 19.3315 15.8501 19.3906 15.7172 19.4064C15.5842 19.4221 15.2444 19.4575 14.9619 19.4849C14.4373 19.5359 14.1586 19.6133 14.088 19.7275C14.0613 19.7707 13.3927 19.7916 12.0429 19.7914L10.0374 19.7911L9.74009 19.6404C9.56962 19.5539 9.33767 19.4891 9.19628 19.4885C9.0607 19.488 8.36516 19.4204 7.65065 19.3385C6.93614 19.2565 6.30706 19.189 6.25275 19.1885C6.05978 19.1865 5.81657 17.9745 5.86718 17.2674C5.91801 16.5574 5.85653 16.279 5.56438 15.8963C5.31468 15.5692 5.31967 15.6131 5.50131 15.3342C6.47564 13.8384 5.18319 11.785 3.61641 12.3395ZM10.2163 12.4118C9.5055 12.7373 9.40451 13.0411 9.40361 14.8564C9.40255 16.971 9.58133 17.1457 11.7443 17.1423C12.5204 17.141 12.9615 17.1979 12.9679 17.2006C12.9917 17.2109 13.0173 17.2165 13.0283 17.2237C13.0424 17.2328 13.0847 17.2409 13.0888 17.2503C13.0928 17.2598 13.1684 17.2975 13.1684 17.2975C13.1684 17.2975 13.6335 17.5356 14.1854 17.843C15.4217 18.5317 15.3244 18.5368 15.3245 17.7826V17.1633L15.6243 17.1589C16.0784 17.1523 16.5672 16.8444 16.8315 16.5045C16.8315 16.5045 16.9707 16.3415 16.9861 16.2064C17.0465 15.6737 17.0036 14.7512 17.0036 14.7512C17.0036 14.7512 16.9826 14.5029 16.9826 13.9742C16.9826 13.8338 16.9826 13.4078 16.9826 13.219C16.9826 13.0301 16.8693 12.8413 16.7182 12.6525C16.5672 12.4637 16.3172 12.3126 15.9629 12.3126C14.946 12.3126 13.28 12.3147 13.28 12.3147C10.6467 12.301 10.4442 12.3073 10.2163 12.4118ZM4.63567 13.2099C5.12767 13.5603 5.14519 14.6002 4.66777 15.1211L4.47004 15.3369L3.87615 15.1937C3.19458 15.0294 3.11837 14.9434 3.1195 14.3404C3.12124 13.3838 3.98031 12.7433 4.63567 13.2099ZM20.1799 13.1074C20.7388 13.3409 21.0417 14.1972 20.7888 14.8292C20.5938 15.3166 19.469 15.437 19.1985 14.9994C18.6105 14.0479 19.2909 12.736 20.1799 13.1074ZM15.9314 13.1621C16.2121 13.3833 16.2308 13.4788 16.2308 14.6954C16.2308 16.325 16.1779 16.4074 15.1309 16.4077L14.5447 16.408L14.5267 16.7699L14.5087 17.1318L13.8533 16.7731L13.198 16.4144L11.8694 16.3961L10.5409 16.3777C10.5409 16.3777 10.3293 16.3927 10.2605 16.3157C10.1917 16.2386 10.1884 16.0864 10.1884 15.9831C10.1884 15.5469 10.1884 14.7105 10.1884 14.7105C10.1884 14.7105 10.1884 13.9986 10.1884 13.4379C10.1884 13.3404 10.2327 13.2367 10.3017 13.1678C10.3638 13.1057 10.4559 13.0866 10.5626 13.0866C11.5445 13.0866 13.1898 13.0866 13.1898 13.0866C15.1777 13.0881 15.8613 13.1069 15.9314 13.1621ZM11.1369 13.6669C11.1137 13.6901 11.0948 13.8677 11.0948 14.0615V14.414H11.8227H12.5507L12.5327 14.0363L12.5147 13.6587L11.8469 13.6417C11.4796 13.6324 11.1601 13.6437 11.1369 13.6669ZM13.1909 13.6674C13.1679 13.6903 13.1492 13.8663 13.1492 14.0583V14.4076L14.0102 14.4259C14.4838 14.436 14.9664 14.4302 15.0827 14.4129L15.2942 14.3817V14.0202V13.6587L14.2634 13.6422C13.6964 13.6332 13.2138 13.6445 13.1909 13.6674ZM11.0948 15.4117V15.8053L13.1945 15.7894L15.2942 15.7735L15.3122 15.3959L15.3302 15.0182H13.2125H11.0948V15.4117Z" fill="black"/>
</svg>
