<svg width="24" height="24" viewBox="0 0 24 24" fill="none" xmlns="http://www.w3.org/2000/svg">
<path fill-rule="evenodd" clip-rule="evenodd" d="M2.58774 1.08364C1.26649 1.51688 0.62554 2.99138 1.22721 4.21353C1.40191 4.56837 3.68572 7.05996 4.64548 7.94276L4.80327 8.08785L5.96892 6.88534C8.3491 4.42963 8.34193 4.43824 8.51648 3.84396C9.12231 1.78116 6.52709 0.0849791 5.00961 1.55193L4.82026 1.73494L4.52622 1.50933C3.9423 1.06128 3.17181 0.892019 2.58774 1.08364ZM19.5169 1.5054C19.3494 1.58342 19.1441 1.72836 19.0606 1.82754C18.9541 1.9542 18.832 2.02014 18.6503 2.04914C17.4169 2.24643 16.712 3.65801 17.1981 4.95728C17.2643 5.13417 17.3605 5.31386 17.4119 5.35646C17.4915 5.42254 17.4001 5.48388 16.7902 5.77346C15.6409 6.31931 15.4679 6.52884 15.1051 7.81557C14.8456 8.73613 14.816 8.74444 14.7258 7.92146C14.6039 6.80852 14.2427 6.3348 13.1018 5.79136C12.5518 5.52942 12.5462 5.52451 12.6085 5.36288C13.039 4.24594 12.0409 2.72249 10.8788 2.72249C9.73131 2.72249 8.7473 4.20205 9.14194 5.3341L9.20237 5.50737L8.51897 5.85397C7.2336 6.50587 7.07884 6.79274 6.94855 8.76438C6.90028 9.49551 6.81818 10.6647 6.76614 11.3626C6.7141 12.0605 6.65594 12.9073 6.63684 13.2443L6.60217 13.8571L6.39657 13.8905C6.08108 13.9417 5.78886 14.154 5.60623 14.4646L5.44059 14.7464V18.8552V22.964L5.81824 22.982L6.19589 23L6.1968 18.994C6.19748 15.9346 6.2153 14.9538 6.27233 14.8433C6.54877 14.3071 6.9814 14.9639 6.9814 15.9198V16.4742L7.35906 16.4562L7.73671 16.4382L7.75446 16.0366L7.77213 15.6351L7.99615 15.6072C8.11934 15.5919 8.22931 15.5869 8.24057 15.5962C8.25182 15.6054 8.3661 17.1039 8.49458 18.926C8.62298 20.7481 8.74511 22.4089 8.76588 22.6166L8.80372 22.9943H10.8792H12.9547L12.9909 22.677C13.0108 22.5026 13.121 21.0139 13.2358 19.3688C13.3506 17.7238 13.4612 16.1965 13.4815 15.9749L13.5185 15.572L13.84 15.6051C14.9199 15.7166 15.2126 14.9736 15.0504 12.533L14.9876 11.5885L15.1275 11.6417C15.3937 11.743 15.9992 11.704 16.2163 11.5717L16.4177 11.4489L16.3837 11.8891C16.365 12.1313 16.3326 13.7365 16.3117 15.4563L16.2737 18.5833H16.4804H16.6871L16.8534 19.9277C17.0299 21.3549 17.1759 22.4745 17.2276 22.7979L17.259 22.9943H18.947H20.635L20.6645 22.8583C20.6808 22.7835 20.7913 21.8794 20.9103 20.8492C21.1922 18.4071 21.1565 18.5833 21.3691 18.5833H21.5436V16.6799V14.7766H21.8641C23.0203 14.7766 23.1363 14.1483 22.7679 9.88222C22.4762 6.50542 22.4345 6.41312 20.8969 5.74015C20.6046 5.6122 20.3573 5.50268 20.3475 5.49672C20.3376 5.49075 20.4102 5.32624 20.5089 5.13107C20.6074 4.93598 20.7081 4.668 20.7325 4.53544C20.7663 4.35251 20.8481 4.23053 21.0726 4.02864C22.3956 2.83919 21.1146 0.761503 19.5169 1.5054ZM3.61789 1.85042C3.77386 1.8937 4.0062 2.0644 4.32916 2.37294L4.8087 2.8311L5.27986 2.37256C5.79483 1.87142 5.91356 1.81764 6.49801 1.82104C7.36955 1.82618 7.97757 2.65029 7.7756 3.5528C7.67568 3.9991 7.6429 4.04004 6.13562 5.5974L4.78295 6.99501L4.41935 6.61079C4.21934 6.39945 3.59795 5.75775 3.0385 5.18478C1.89921 4.01806 1.78757 3.84419 1.78757 3.23557C1.78757 2.20738 2.62392 1.57443 3.61789 1.85042ZM20.4242 2.17354C20.8076 2.33374 20.9713 2.84138 20.7645 3.2293L20.6552 3.43452L20.5857 3.23504C20.4928 2.96857 20.1705 2.55519 19.923 2.38517L19.7224 2.24741L19.8626 2.16961C20.0459 2.06787 20.1734 2.06878 20.4242 2.17354ZM19.2666 2.88043C19.4628 2.98126 19.7301 3.24357 19.8285 3.43195L19.9153 3.59811H18.9168C18.3675 3.59811 17.9182 3.58316 17.9182 3.56488C17.9182 3.09765 18.8091 2.64538 19.2666 2.88043ZM4.44359 3.65552V4.02108H4.08105H3.7185V4.38363V4.74617H4.08105H4.44359V5.10872V5.47126H4.80614H5.16868V5.10872V4.74617H5.53122H5.89377V4.38363V4.02108H5.53425H5.17472L5.1566 3.67364L5.13847 3.32621L4.79103 3.30808L4.44359 3.28995V3.65552ZM11.2731 3.61322C11.7714 3.86511 12.0643 4.62819 11.8786 5.19067L11.806 5.41084H10.9012H9.99642L9.90193 5.1847C9.61862 4.50659 10.2075 3.47727 10.8788 3.47727C10.9478 3.47727 11.1252 3.53844 11.2731 3.61322ZM19.9712 4.41384C19.9595 4.98522 19.1893 5.52073 18.6223 5.35162C18.1564 5.21257 17.6076 4.42283 17.9399 4.36958C18.2519 4.31965 19.9724 4.35712 19.9712 4.41384ZM18.631 6.15421C18.8899 6.20942 19.0184 6.20496 19.3031 6.13079L19.6551 6.03902L20.3728 6.35904C21.8851 7.03345 21.7422 6.64425 22.0874 11.0303C22.1228 11.4789 22.1637 11.9208 22.1785 12.0122C22.2051 12.1775 22.2035 12.1783 21.8534 12.1783H21.5017L21.4347 11.4381C21.3978 11.031 21.3207 10.1206 21.2634 9.41492C21.1412 7.91074 21.1828 8.01761 20.7344 8.05568L20.3783 8.08589L20.4178 8.81793C20.4394 9.2205 20.4848 9.94416 20.5186 10.426C20.5524 10.9079 20.6006 11.5965 20.6259 11.9562C20.651 12.316 20.6564 12.6197 20.6379 12.6311C20.6194 12.6426 19.8231 12.6513 18.8684 12.6504L17.1327 12.6489L17.1365 12.3381C17.1387 12.1672 17.2021 11.1572 17.2774 10.0937C17.4315 7.91693 17.4546 8.09329 17.008 8.03891L16.672 7.99797L16.3195 9.348C15.8678 11.0779 15.8869 11.0458 15.389 10.9118C14.9704 10.7991 14.9141 10.7082 14.8705 10.0747L14.8316 9.51198L15.0572 9.6653C15.1813 9.74959 15.2919 9.80956 15.303 9.79846C15.3283 9.77316 15.8898 7.95228 15.9852 7.58611C16.083 7.21095 16.2542 6.95143 16.5067 6.79531C16.9027 6.55059 18.1288 6.01923 18.2203 6.05269C18.2701 6.07097 18.455 6.11659 18.631 6.15421ZM11.565 6.6694C11.4958 8.18906 10.2698 8.16021 10.1929 6.63707L10.1707 6.19635H10.8785H11.5864L11.565 6.6694ZM9.41521 6.72506C9.58002 8.68099 11.3366 9.30049 12.1139 7.67674C12.2777 7.33459 12.2743 7.34849 12.3332 6.75527C12.3571 6.51433 12.387 6.3172 12.3996 6.3172C12.4123 6.3172 12.6172 6.41516 12.8549 6.53495C13.9475 7.08511 13.9084 6.98073 14.1178 9.90292C14.2112 11.2042 14.2886 12.3981 14.2901 12.556L14.2927 12.843H13.935H13.5772L13.5416 12.4654C13.4895 11.9138 13.2655 8.6402 13.2655 8.43V8.25077H12.8728H12.48L12.4802 8.47736C12.4802 8.60199 12.5067 9.05743 12.539 9.48947C12.5712 9.9215 12.6252 10.6964 12.659 11.2116C12.6928 11.7267 12.737 12.3045 12.7572 12.4956L12.794 12.843H10.8847C9.39671 12.843 8.97578 12.8263 8.97699 12.7675C8.97782 12.7259 9.00327 12.4336 9.03348 12.1179C9.11725 11.2419 9.29368 8.36769 9.26544 8.33937C9.25161 8.32562 9.0788 8.30681 8.88129 8.29768L8.52222 8.28098L8.36058 10.4865C8.27169 11.6995 8.19691 12.7259 8.19442 12.7675C8.19125 12.8197 8.06791 12.843 7.79343 12.843H7.39697L7.43111 12.5862C7.44984 12.445 7.53474 11.2961 7.61963 10.0333C7.7969 7.39811 7.8034 7.36148 8.15476 7.01993C8.36255 6.81804 9.18371 6.33518 9.34429 6.32052C9.36438 6.31871 9.39633 6.50074 9.41521 6.72506ZM18.5828 9.5801V12.1179H18.9454H19.3079V11.6194C19.3079 11.3452 19.3094 10.2916 19.3111 9.27798C19.3128 8.26437 19.3128 7.34668 19.3111 7.23867L19.3079 7.04229H18.9454H18.5828V9.5801ZM22.2083 13.4136C22.2083 14.323 21.6033 14.3128 21.5173 13.4019L21.4759 12.9639H21.8421H22.2083V13.4136ZM20.7118 13.4681C20.7363 13.5065 20.7567 14.4964 20.7572 15.6678L20.7581 17.7978H18.9194H17.0807L17.0614 15.698C17.0507 14.5432 17.0514 13.5531 17.0628 13.4979C17.0891 13.3709 20.6316 13.342 20.7118 13.4681ZM8.18898 14.0666C8.188 14.5706 8.10431 14.7809 7.87228 14.8625C7.5577 14.9731 7.40437 14.7335 7.40437 14.1316V13.6285H7.79713H8.18989L8.18898 14.0666ZM12.7972 14.0967C12.7761 14.746 12.6192 17.2174 12.4798 19.0969C12.4156 19.961 12.3447 21.0146 12.3221 21.4383L12.2811 22.2087H11.7763H11.2715V18.5596C11.2715 14.5208 11.3049 14.837 10.8788 14.837C10.4526 14.837 10.486 14.5208 10.486 18.5596V22.2087H9.9832H9.4804L9.46688 21.8915C9.45154 21.5314 9.38477 20.5309 9.25018 18.6437C9.05025 15.8404 8.97419 14.6644 8.95999 14.1571L8.94519 13.6282H10.8788H12.8123L12.7972 14.0967ZM14.3531 14.0985C14.3531 14.6916 14.2621 14.8521 13.9409 14.8252C13.6522 14.801 13.5697 14.6329 13.5685 14.0666L13.5676 13.6285H13.9604H14.3531V14.0985ZM18.5828 20.396V22.2087H18.2532C17.8635 22.2087 17.9358 22.4398 17.6768 20.3658C17.5772 19.5682 17.4827 18.8409 17.4667 18.7495L17.4378 18.5833H18.0103H18.5828V20.396ZM20.3691 18.7797C20.3516 18.8877 20.2823 19.4791 20.2153 20.0939C20.1482 20.7087 20.0633 21.4361 20.0267 21.7102L19.9601 22.2087H19.6406H19.321L19.3181 20.396L19.3153 18.5833H19.8582H20.4011L20.3691 18.7797Z" fill="black"/>
</svg>
