<svg width="32" height="32" viewBox="0 0 32 32" fill="none" xmlns="http://www.w3.org/2000/svg">
<path d="M5.33335 29.3333C4.60002 29.3333 3.97246 29.0724 3.45069 28.5507C2.92891 28.0289 2.66758 27.4009 2.66669 26.6667V10.6667C2.66669 9.93333 2.92802 9.30578 3.45069 8.784C3.97335 8.26222 4.60091 8.00089 5.33335 8H10.6667V5.33333C10.6667 4.6 10.928 3.97244 11.4507 3.45066C11.9734 2.92889 12.6009 2.66755 13.3334 2.66666H18.6667C19.4 2.66666 20.028 2.928 20.5507 3.45066C21.0734 3.97333 21.3342 4.60089 21.3334 5.33333V8H26.6667C27.4 8 28.028 8.26133 28.5507 8.784C29.0734 9.30666 29.3342 9.93422 29.3334 10.6667V26.6667C29.3334 27.4 29.0725 28.028 28.5507 28.5507C28.0289 29.0733 27.4009 29.3342 26.6667 29.3333H5.33335ZM5.33335 26.6667H26.6667V10.6667H5.33335V26.6667ZM13.3334 8H18.6667V5.33333H13.3334V8ZM14.6667 20V24H17.3334V20H21.3334V17.3333H17.3334V13.3333H14.6667V17.3333H10.6667V20H14.6667Z" fill="black"/>
</svg>
