<svg width="24" height="24" viewBox="0 0 24 24" fill="none" xmlns="http://www.w3.org/2000/svg">
<path d="M7.2375 1.03125C6.08438 1.275 5.08125 2.07188 4.56563 3.16875C4.29375 3.74062 4.26562 3.88125 4.26562 4.6875C4.26562 5.48438 4.29375 5.64375 4.55625 6.1875C4.92188 6.96563 5.25938 7.35 5.91563 7.78125L6.44063 8.11875L6.27188 8.69063C6.09375 9.3375 6.17813 9.68438 6.525 9.73125C6.6375 9.75 7.29375 9.45938 7.9875 9.09375C9.04688 8.54063 9.32812 8.4375 9.7125 8.4375C11.5688 8.4375 12.9375 7.65938 13.6031 6.23438C14.5219 4.28438 13.5938 2.00625 11.5594 1.20937C11.0813 1.02187 10.8188 0.99375 9.32812 0.974999C8.4 0.95625 7.4625 0.984375 7.2375 1.03125ZM11.3625 2.175C11.9625 2.45625 12.4781 2.95312 12.7688 3.55312C12.9281 3.89062 12.975 4.14375 12.975 4.6875C12.975 5.56875 12.7313 6.1125 12.0844 6.69375C11.5031 7.21875 10.95 7.40625 10.0125 7.40625C9.31875 7.40625 9.225 7.43438 8.33438 7.88438L7.3875 8.35313L7.45313 8.07188C7.54688 7.63125 7.43438 7.44375 6.98438 7.275C6.38438 7.04063 5.69063 6.38438 5.42813 5.79375C5.12813 5.10938 5.12813 4.1625 5.42813 3.5625C5.70938 3.01875 6.225 2.475 6.70312 2.23125C7.2375 1.95 7.8375 1.88438 9.43125 1.9125C10.7063 1.94062 10.9031 1.96875 11.3625 2.175Z" fill="black"/>
<path d="M6.52498 4.18124C6.16873 4.52812 6.27186 5.08124 6.71248 5.24999C7.34061 5.49374 7.91248 4.63124 7.42498 4.19062C7.20936 3.99374 6.71248 3.98437 6.52498 4.18124Z" fill="black"/>
<path d="M8.62495 4.21875C8.2312 4.6125 8.52183 5.27812 9.0937 5.27812C9.63745 5.27812 9.92808 4.69687 9.59995 4.2375C9.41245 3.96562 8.88745 3.95625 8.62495 4.21875Z" fill="black"/>
<path d="M10.7437 4.2375C10.4062 4.71562 10.6875 5.27812 11.2687 5.27812C11.6062 5.27812 11.9062 4.97812 11.9062 4.63125C11.9062 4.0875 11.0437 3.79687 10.7437 4.2375Z" fill="black"/>
<path d="M2.85001 9.87187C1.88439 10.3406 1.31251 11.1562 1.23751 12.1969C1.18126 13.0031 1.38751 13.6219 1.89376 14.2031C2.46564 14.85 3.07501 15.1312 3.93751 15.1312C5.06251 15.1406 5.94376 14.6156 6.45001 13.65C6.78751 12.9937 6.80626 11.8875 6.48751 11.2406C5.99064 10.2375 5.22189 9.74062 4.07814 9.68437C3.43126 9.64687 3.26251 9.675 2.85001 9.87187ZM4.73439 10.7719C5.38126 11.0625 5.81251 11.7469 5.81251 12.4781C5.81251 12.6094 5.70001 12.9375 5.56876 13.2C4.78126 14.7844 2.42814 14.3906 2.19376 12.6375C2.04376 11.5687 2.89689 10.5937 3.98439 10.5937C4.19064 10.5937 4.52814 10.6781 4.73439 10.7719Z" fill="black"/>
<path d="M11.1093 9.77812C9.89996 10.2562 9.26246 11.1844 9.27183 12.4687C9.27183 13.5 9.89058 14.4469 10.8656 14.925C11.4562 15.2156 12.5156 15.225 13.1343 14.9344C13.6968 14.6812 14.3062 14.0719 14.5593 13.5094C14.8406 12.9 14.8218 11.9344 14.5312 11.2687C14.2687 10.6594 13.575 10.0125 12.9656 9.80625C12.4593 9.6375 11.5218 9.61875 11.1093 9.77812ZM12.825 10.7906C13.4062 11.0812 13.7812 11.6812 13.7812 12.3469C13.7812 12.9844 13.6125 13.3781 13.1906 13.7531C12.0375 14.7656 10.2187 13.95 10.2187 12.4219C10.2187 11.0437 11.5781 10.1906 12.825 10.7906Z" fill="black"/>
<path d="M19.2187 9.74062C18.45 9.97499 17.7187 10.6687 17.4281 11.4375C17.0437 12.45 17.3531 13.7344 18.15 14.4375C18.7312 14.9437 19.2562 15.1406 20.0625 15.1312C20.925 15.1312 21.5343 14.85 22.1062 14.2031C23.6437 12.45 22.3781 9.63749 20.0625 9.66562C19.725 9.66562 19.35 9.70312 19.2187 9.74062ZM20.7656 10.7719C21.4968 11.1 21.9187 11.85 21.8062 12.6375C21.5437 14.5312 18.9187 14.7562 18.3 12.9469C17.9062 11.8219 18.8062 10.5937 20.0156 10.5937C20.2218 10.5937 20.5593 10.6781 20.7656 10.7719Z" fill="black"/>
<path d="M2.2031 15.7312C1.76247 15.9375 1.46247 16.2469 1.32185 16.6219C1.18122 16.9969 1.1906 19.2469 1.33122 19.3875C1.4906 19.5469 1.83747 19.5281 2.00622 19.35C2.1281 19.2375 2.15622 18.975 2.15622 18.0937C2.15622 16.5375 2.15622 16.5375 3.6281 16.575C4.23747 16.5844 4.84685 16.6406 4.98747 16.6969C5.1281 16.7531 5.58747 17.2031 6.00935 17.7C7.16247 19.0687 7.42497 19.2188 8.78435 19.2188C9.43122 19.2188 9.57185 19.2469 9.64685 19.3875C9.7031 19.4906 9.7031 19.6125 9.64685 19.7156C9.56247 19.8562 9.39372 19.875 8.32497 19.875H7.10622L6.2906 19.1437C5.84997 18.7406 5.41872 18.3844 5.33435 18.3469C5.24997 18.3187 5.0906 18.3562 4.9781 18.4312C4.69685 18.6281 4.7156 19.0594 5.0156 19.2937C5.2406 19.4719 5.24997 19.5187 5.24997 20.55C5.24997 21.7219 5.3531 22.0312 5.7656 22.0312C6.1031 22.0312 6.28122 21.6937 6.28122 21.075C6.28122 20.4937 6.2906 20.475 6.57185 20.625C6.71247 20.7094 6.74997 20.8312 6.74997 21.2625C6.74997 21.8438 6.8531 22.0312 7.18122 22.0312C7.50935 22.0312 7.68747 21.7875 7.68747 21.3187V20.9062H9.28122C10.7531 20.9062 10.8937 20.8875 11.0625 20.7188C11.1656 20.6156 11.25 20.4844 11.25 20.4281C11.25 20.2219 11.0625 19.9875 10.8375 19.9312C10.6687 19.8937 10.6218 19.8281 10.6593 19.6969C10.8 19.1437 10.1906 18.375 9.54372 18.2906C9.14997 18.2344 9.1406 18.225 9.11247 17.8594C9.0656 17.2875 9.24372 16.8094 9.56247 16.6406C9.9656 16.4344 14.0343 16.4344 14.4375 16.6406C14.7562 16.8094 14.9343 17.2875 14.8875 17.8594C14.8593 18.225 14.85 18.2344 14.4562 18.2906C13.8187 18.375 13.2 19.1437 13.3406 19.6875C13.3781 19.8375 13.3031 19.8562 12.5437 19.8937C11.8406 19.9125 11.6812 19.95 11.5687 20.1C11.3906 20.3531 11.4 20.4937 11.625 20.7188C11.8031 20.8969 11.9343 20.9062 14.0625 20.9062H16.3125V21.3187C16.3125 21.7875 16.4906 22.0312 16.8187 22.0312C17.1468 22.0312 17.25 21.8438 17.25 21.2625C17.25 20.8312 17.2875 20.7094 17.4281 20.625C17.7093 20.475 17.7187 20.4937 17.7187 21.075C17.7187 21.6937 17.8968 22.0312 18.2343 22.0312C18.6468 22.0312 18.75 21.7219 18.75 20.55C18.75 19.5187 18.7593 19.4812 18.9937 19.275C19.3968 18.9375 19.2562 18.2812 18.7781 18.2812C18.7125 18.2812 18.2625 18.6375 17.775 19.0781L16.8937 19.875H15.6656C14.5875 19.875 14.4375 19.8562 14.3531 19.7062C14.2968 19.6031 14.2968 19.4812 14.3531 19.3781C14.4281 19.2469 14.5875 19.2188 15.2625 19.2188C16.1156 19.2094 16.6593 19.0781 16.9875 18.7781C17.0906 18.6844 17.5218 18.225 17.9343 17.7656C18.9843 16.5938 18.9562 16.6125 20.325 16.575C21.45 16.5469 21.4875 16.5562 21.6656 16.7719C21.7593 16.8937 21.8437 17.1281 21.8437 17.3062C21.8437 17.5406 21.9093 17.6625 22.0781 17.775C22.2937 17.9156 22.3312 17.9156 22.5468 17.775C22.9875 17.4844 22.8093 16.5 22.2375 16.0125C21.7687 15.6187 21.375 15.5344 20.1656 15.5812C18.6656 15.6469 18.5062 15.7219 17.2781 17.025C16.05 18.3187 15.8437 18.3937 15.8437 17.55C15.8343 16.6125 15.3375 15.8812 14.55 15.6562C14.3531 15.6094 13.2 15.5625 11.9062 15.5625C9.87185 15.5625 9.56247 15.5906 9.23435 15.7406C8.52185 16.0687 8.15622 16.6969 8.15622 17.5781C8.15622 18.3844 7.9406 18.3094 6.72185 17.025C5.47497 15.7031 5.34372 15.6375 3.74997 15.5906C2.74685 15.5625 2.52185 15.5812 2.2031 15.7312Z" fill="black"/>
<path d="M22.05 18.2437C21.8531 18.3844 21.8438 18.4406 21.8438 20.025C21.8438 20.9812 21.8813 21.7406 21.9375 21.8531C22.05 22.0594 22.4906 22.0969 22.6688 21.9187C22.7438 21.8437 22.7813 21.3 22.7813 20.1C22.7813 18.4312 22.7719 18.3844 22.575 18.2437C22.4625 18.1594 22.3406 18.0937 22.3125 18.0937C22.2844 18.0937 22.1625 18.1594 22.05 18.2437Z" fill="black"/>
<path d="M1.33125 19.9875C1.18125 20.1375 1.18125 21.7687 1.33125 21.9187C1.50938 22.0969 1.95 22.0594 2.0625 21.8531C2.18438 21.6187 2.18438 20.2875 2.0625 20.0531C1.95 19.8469 1.50938 19.8094 1.33125 19.9875Z" fill="black"/>
</svg>
