<svg width="24" height="24" viewBox="0 0 24 24" fill="none" xmlns="http://www.w3.org/2000/svg">
<g clip-path="url(#clip0_82_1040)">
<path d="M0.703125 1.02188C0.6 1.06875 0.4125 1.21875 0.28125 1.35938L0.046875 1.6125V10.8844V20.1563L0.35625 20.4563L0.65625 20.7656H7.3125H13.9688L14.2688 20.4563C14.5781 20.1563 14.5781 20.1375 14.6063 19.1625L14.6438 18.1688L14.325 18.2344C14.1563 18.2719 13.9875 18.3188 13.95 18.3469C13.9031 18.3656 13.875 18.7125 13.875 19.1156C13.875 19.5469 13.8281 19.8844 13.7625 19.95C13.6031 20.1094 1.02188 20.1094 0.8625 19.95C0.703125 19.7906 0.703125 1.95938 0.8625 1.8C1.02188 1.64063 13.6031 1.64063 13.7625 1.8C13.8375 1.875 13.875 2.325 13.875 3.19688C13.875 3.90938 13.9031 4.50938 13.95 4.52813C13.9875 4.55625 14.1563 4.60313 14.325 4.64063L14.6344 4.70625L14.6063 3.15L14.5781 1.59375L14.2688 1.29375L13.9688 0.984377L7.425 0.965626C3.83438 0.956251 0.80625 0.984377 0.703125 1.02188Z" fill="black"/>
<path d="M11.0812 5.15625C10.3781 5.2875 9.30935 5.71875 8.69998 6.13125C7.98748 6.6 7.03123 7.63125 6.6281 8.3625C6.05623 9.38438 5.85935 10.1906 5.86873 11.4844C5.86873 12.4406 5.90623 12.7219 6.12185 13.3594C6.45935 14.3719 6.95623 15.1875 7.69685 15.9281C9.61873 17.85 12.5062 18.3375 14.9531 17.1563C15.3656 16.9594 15.8812 16.6406 16.1062 16.4438L16.5187 16.0969L16.8094 16.3875C17.0719 16.65 17.0812 16.7063 16.9875 16.9219C16.8375 17.2406 16.8469 17.6531 17.0062 18.0281C17.0812 18.1969 18.1875 19.3688 19.4625 20.6438C21.975 23.1281 22.0312 23.175 22.8375 23.025C23.2781 22.9406 23.8781 22.3406 23.9625 21.9C24.1125 21.0938 24.0656 21.0375 21.5812 18.525C20.3062 17.25 19.1344 16.1438 18.9656 16.0688C18.5906 15.9094 18.1781 15.9 17.8594 16.05C17.6437 16.1438 17.5875 16.1344 17.3344 15.8813L17.0531 15.6L17.475 14.9813C18.8344 12.9469 18.9 10.2938 17.6437 8.175C17.2031 7.43438 16.1062 6.34688 15.3656 5.93438C14.1656 5.24063 12.3937 4.92188 11.0812 5.15625ZM13.3594 5.95313C14.4281 6.17813 15.3187 6.675 16.125 7.49063C16.9406 8.30625 17.3531 9.02813 17.625 10.0875C17.9625 11.4094 17.7937 12.8438 17.1375 14.0906C16.6875 14.9531 15.5906 16.0125 14.7187 16.4438C12.4687 17.5406 9.99373 17.1375 8.2406 15.3844C6.00935 13.1531 6.00935 9.72188 8.2406 7.49063C9.63748 6.09375 11.4469 5.55 13.3594 5.95313ZM20.9719 18.9656C22.95 20.9344 23.25 21.2719 23.25 21.525C23.25 22.0031 22.7437 22.3969 22.2843 22.275C22.1719 22.2469 21.075 21.225 19.8562 19.9875C17.9156 18.0469 17.625 17.7188 17.625 17.4656C17.625 17.0813 18.0187 16.6875 18.4125 16.6875C18.6656 16.6875 18.9844 16.9688 20.9719 18.9656Z" fill="black"/>
<path d="M13.875 7.07812V7.3125H11.7375H9.59058L9.2062 7.58437C8.99995 7.73438 8.80308 7.90312 8.76558 7.95937C8.72808 8.03437 9.48745 8.0625 11.2875 8.0625H13.875V8.4375V8.8125H10.9687H8.06245L7.87495 9.1875L7.68745 9.5625H10.7812H13.875V9.9375V10.3125H10.6406C7.62183 10.3125 7.4062 10.3219 7.4062 10.4719C7.4062 10.5656 7.37808 10.7344 7.34995 10.8469L7.2937 11.0625H10.5843H13.875V11.4375V11.8125H10.5843H7.2937L7.34995 12.0187C7.37808 12.1406 7.4062 12.3094 7.4062 12.3937C7.4062 12.5531 7.62183 12.5625 10.6406 12.5625H13.875V12.9375V13.3125H10.7812H7.68745L7.87495 13.6875L8.06245 14.0625H10.9687H13.875V14.4375V14.8125H11.2875C9.48745 14.8125 8.72808 14.8406 8.76558 14.9156C8.80308 14.9719 8.99995 15.1406 9.2062 15.2906L9.59058 15.5625H11.7375H13.875V15.7969V16.0312L14.25 15.8438L14.625 15.6562V11.4375V7.21875L14.25 7.03125L13.875 6.84375V7.07812Z" fill="black"/>
</g>
<defs>
<clipPath id="clip0_82_1040">
<rect width="24" height="24" fill="white"/>
</clipPath>
</defs>
</svg>
