<svg width="24" height="24" viewBox="0 0 24 24" fill="currentColor" xmlns="http://www.w3.org/2000/svg">
<path d="M6.23435 1.18125C5.18435 1.35 4.02185 1.80937 3.2156 2.35312C0.168723 4.44375 -0.843777 8.30625 0.796848 11.6531L1.04997 12.1687L0.871848 12.4406C-0.0281523 13.7156 0.768723 15.5719 2.30622 15.8062C2.70935 15.8625 2.70935 15.8625 2.81247 16.3687C3.00935 17.3062 3.87185 18.0937 4.70622 18.0937C5.04372 18.0937 5.06247 18.1031 5.06247 18.4031C5.06247 18.5719 5.17497 18.9469 5.32497 19.2281C5.62497 19.8281 6.2531 20.2969 6.88122 20.3906C7.28435 20.4562 7.28435 20.4562 7.39685 20.9531C7.73435 22.4625 9.3656 23.1469 10.6781 22.3406C11.1375 22.05 11.1468 22.05 11.3156 22.2375C11.8781 22.8562 13.125 22.9687 13.8562 22.4625C14.0812 22.3031 14.3343 22.0031 14.4937 21.7031L14.7562 21.2062L15.3281 21.225C16.1437 21.2437 16.725 20.925 17.1375 20.25C17.3156 19.95 17.4375 19.6125 17.4375 19.4344C17.4375 19.1625 17.4656 19.125 17.7 19.125C17.8406 19.125 18.1875 19.0125 18.4593 18.8812C19.0406 18.5906 19.4531 18.0187 19.5562 17.3906C19.6125 16.9969 19.6218 16.9875 20.0343 16.9406C20.9531 16.8375 21.6562 15.9937 21.6562 14.9906C21.6562 14.6906 21.6093 14.3437 21.5531 14.2125C21.45 13.9969 21.4875 13.9312 21.9281 13.4437C22.8281 12.4687 23.4562 11.3344 23.7843 10.125C24.0093 9.29062 24.0093 7.40625 23.775 6.57187C22.8562 3.19687 19.7531 0.937496 16.3593 1.15312C15.9 1.18125 15.2625 1.275 14.9531 1.35937C14.2218 1.54687 13.0031 2.1375 12.45 2.55937L12 2.90625L11.5593 2.55937C10.9968 2.1375 9.78747 1.55625 9.04685 1.35937C8.48435 1.20937 6.75935 1.09687 6.23435 1.18125ZM8.70935 2.4C9.30935 2.55 10.5093 3.1125 10.9593 3.45937L11.175 3.62812L8.93435 5.46562C7.69685 6.47812 6.63747 7.41562 6.58122 7.54687C6.2531 8.25937 6.57185 8.98125 7.38747 9.35625C7.87497 9.59062 8.0156 9.60937 9.04685 9.60937C9.97497 9.6 10.2843 9.5625 10.7812 9.38437C11.3625 9.1875 12.3281 8.65312 12.8437 8.25C13.0781 8.07187 13.0875 8.07187 13.8 8.27812L14.5312 8.48437L17.55 11.5125L20.5781 14.5312V14.9437C20.5781 15.675 19.875 16.1344 19.2562 15.8156C19.1062 15.7312 18.3093 14.9906 17.4843 14.1656C15.9187 12.5906 15.7312 12.4687 15.3562 12.8156C15.2625 12.9 15.1875 13.05 15.1875 13.1625C15.1875 13.2844 15.7687 13.9406 16.8281 15C18.4406 16.6219 18.4687 16.6594 18.4687 17.0531C18.4687 17.6156 18.0843 18 17.5218 18C17.1375 18 17.0906 17.9625 15.4687 16.3594C14.5593 15.4594 13.7531 14.7187 13.6781 14.7187C13.4156 14.7187 13.125 15.0094 13.125 15.2625C13.125 15.4594 13.4531 15.8344 14.6625 17.0625C15.5156 17.9156 16.2562 18.7312 16.3125 18.8812C16.4531 19.2656 16.35 19.6406 16.0125 19.9219C15.4781 20.3719 15.1687 20.2594 13.9968 19.2375C13.5468 18.8437 13.4156 18.675 13.3687 18.3937C13.2375 17.5594 12.2812 16.6875 11.5125 16.6875C11.1843 16.6875 11.1843 16.6781 11.0812 16.1719C10.8843 15.2156 10.1625 14.5031 9.27185 14.3812C8.84997 14.325 8.81247 14.2969 8.81247 14.0531C8.81247 13.1344 7.7906 12.0937 6.87185 12.0937C6.63747 12.0937 6.56247 12.0562 6.56247 11.925C6.56247 11.8312 6.49685 11.5406 6.42185 11.2781C6.1406 10.3406 5.09997 9.65625 4.16247 9.7875C3.56247 9.8625 3.12185 10.125 2.48435 10.7719C2.17497 11.0906 1.9031 11.3437 1.8656 11.3437C1.77185 11.3437 1.34997 10.2375 1.2281 9.675C1.08747 8.99062 1.09685 7.65937 1.2656 6.975C1.78122 4.77187 3.49685 3 5.64372 2.4375C6.5156 2.2125 7.87497 2.19375 8.70935 2.4ZM18.6562 2.5125C20.4656 3.10312 22.0218 4.65937 22.6125 6.46875C22.8843 7.3125 22.95 8.90625 22.7343 9.79687C22.5281 10.7156 22.0406 11.6531 21.3656 12.4219C21.0562 12.7781 20.7656 13.0875 20.7281 13.1062C20.6906 13.1156 19.6593 12.1031 18.4406 10.8469L16.2281 8.56875L16.7625 8.45625C17.8781 8.22187 19.2187 7.36875 19.2187 6.89062C19.2187 6.36562 18.6375 6.21562 18.1687 6.60937C17.175 7.44375 15.825 7.6875 14.3812 7.29375C13.9781 7.19062 13.4343 7.07812 13.1906 7.05C12.7687 7.0125 12.6937 7.05 11.9062 7.58437C10.9125 8.25 10.0875 8.54062 9.1406 8.55937C8.41872 8.56875 7.63122 8.39062 7.55622 8.19375C7.49997 8.05312 7.7906 7.8 10.4531 5.625C11.4843 4.78125 12.5343 3.90937 12.7875 3.68437C13.2937 3.225 14.5031 2.60625 15.2812 2.39062C16.0312 2.18437 17.85 2.25937 18.6562 2.5125ZM5.0531 11.1187C5.36247 11.3719 5.5031 11.8312 5.3906 12.2531C5.32497 12.5437 3.57185 14.3812 3.16872 14.5875C2.71872 14.8219 2.26872 14.7562 1.91247 14.4C1.6406 14.1281 1.59372 14.0156 1.59372 13.6406C1.59372 13.2 1.61247 13.1719 2.55935 12.2062C3.08435 11.6719 3.64685 11.1469 3.79685 11.0531C4.19997 10.8 4.70622 10.8187 5.0531 11.1187ZM7.19997 13.3125C7.58435 13.5469 7.79997 14.0344 7.7156 14.4469C7.6406 14.8219 5.8781 16.6875 5.38122 16.9219C4.94997 17.1281 4.51872 17.0437 4.1906 16.7062C3.90935 16.4062 3.79685 16.0406 3.8906 15.6844C3.9281 15.5344 4.38747 14.9812 4.94997 14.4094C6.23435 13.0969 6.57185 12.9375 7.19997 13.3125ZM9.6656 15.7312C9.8906 15.9281 9.9656 16.0875 10.0031 16.4437L10.0593 16.8844L8.8406 18.1031C7.66872 19.275 7.62185 19.3125 7.2281 19.3125C6.8906 19.3125 6.76872 19.2562 6.50622 18.9937C6.23435 18.7219 6.18747 18.6094 6.18747 18.225V17.775L7.3406 16.6219C8.48435 15.4781 8.49372 15.4687 8.93435 15.4687C9.28122 15.4687 9.43122 15.525 9.6656 15.7312ZM11.8218 17.9344C12.2062 18.1875 12.3843 18.6656 12.2718 19.0687C12.1687 19.425 10.2937 21.3375 9.87185 21.525C9.44997 21.7031 9.04685 21.6 8.70935 21.2062C8.44685 20.9156 8.41872 20.8219 8.4656 20.4562C8.5031 20.0719 8.59685 19.95 9.4781 19.0594C10.8843 17.6437 11.175 17.5031 11.8218 17.9344ZM13.3312 20.1C13.5562 20.2687 13.7062 20.7094 13.6406 21C13.5 21.6469 12.6281 21.9281 12.0843 21.5156L11.8312 21.3281L12.4593 20.6531C12.7968 20.2875 13.0968 19.9781 13.125 19.9781C13.1531 19.9781 13.2468 20.025 13.3312 20.1Z" fill="currentColor"/>
</svg>
