<svg width="24" height="24" viewBox="0 0 24 24" fill="none" xmlns="http://www.w3.org/2000/svg">
<g clip-path="url(#clip0_43_467)">
<path d="M23.1429 12C23.1429 14.9553 21.9689 17.7895 19.8792 19.8792C17.7895 21.9689 14.9553 23.1429 12 23.1429C9.04477 23.1429 6.21054 21.9689 4.12085 19.8792C2.03115 17.7895 0.857178 14.9553 0.857178 12M23.1429 12C23.1429 9.04473 21.9689 6.2105 19.8792 4.12081C17.7895 2.03112 14.9553 0.85714 12 0.85714C9.04477 0.85714 6.21054 2.03112 4.12085 4.12081C2.03115 6.2105 0.857178 9.04473 0.857178 12M23.1429 12H0.857178" stroke="black" stroke-linecap="round" stroke-linejoin="round"/>
<path d="M16.2858 12C16.0753 16.0748 14.5744 19.9772 12.0001 23.1429C9.42576 19.9772 7.92487 16.0748 7.71436 12C7.92487 7.92516 9.42576 4.02283 12.0001 0.85714C14.5744 4.02283 16.0753 7.92516 16.2858 12Z" stroke="black" stroke-linecap="round" stroke-linejoin="round"/>
</g>
<defs>
<clipPath id="clip0_43_467">
<rect width="24" height="24" fill="white"/>
</clipPath>
</defs>
</svg>
