<svg width="12" height="12" viewBox="0 0 12 12" fill="none" xmlns="http://www.w3.org/2000/svg">
<path d="M3.091 5.1665C2.602 5.1665 2.5 5.2625 2.5 5.722V6.5555C2.5 7.0155 2.602 7.111 3.091 7.111H4.2725V10.4445C4.2725 10.9045 4.375 11 4.8635 11H6.0455C6.5345 11 6.6365 10.904 6.6365 10.4445V7.111H7.9635C8.334 7.111 8.4295 7.0435 8.5315 6.708L8.785 5.875C8.9595 5.3005 8.8515 5.1665 8.2165 5.1665H6.6365V3.778C6.6365 3.471 6.901 3.222 7.227 3.222H8.909C9.398 3.222 9.5 3.1265 9.5 2.667V1.555C9.5 1.0955 9.398 1 8.909 1H7.227C5.5955 1 4.2725 2.2435 4.2725 3.778V5.1665H3.091Z" stroke="#A8AAAD" stroke-width="0.8" stroke-linecap="round" stroke-linejoin="round"/>
</svg>
