<svg width="12" height="12" viewBox="0 0 12 12" fill="none" xmlns="http://www.w3.org/2000/svg">
<path d="M8 3.5C8 3.36739 8.05268 3.24021 8.14645 3.14645C8.24021 3.05268 8.36739 3 8.5 3C8.63261 3 8.75979 3.05268 8.85355 3.14645C8.94732 3.24021 9 3.36739 9 3.5C9 3.63261 8.94732 3.75979 8.85355 3.85355C8.75979 3.94732 8.63261 4 8.5 4C8.36739 4 8.24021 3.94732 8.14645 3.85355C8.05268 3.75979 8 3.63261 8 3.5Z" fill="#A8AAAD"/>
<path fill-rule="evenodd" clip-rule="evenodd" d="M6 3.625C5.37011 3.625 4.76602 3.87522 4.32062 4.32062C3.87522 4.76602 3.625 5.37011 3.625 6C3.625 6.62989 3.87522 7.23398 4.32062 7.67938C4.76602 8.12478 5.37011 8.375 6 8.375C6.62989 8.375 7.23398 8.12478 7.67938 7.67938C8.12478 7.23398 8.375 6.62989 8.375 6C8.375 5.37011 8.12478 4.76602 7.67938 4.32062C7.23398 3.87522 6.62989 3.625 6 3.625ZM4.375 6C4.375 5.56902 4.54621 5.1557 4.85095 4.85095C5.1557 4.54621 5.56902 4.375 6 4.375C6.43098 4.375 6.8443 4.54621 7.14905 4.85095C7.45379 5.1557 7.625 5.56902 7.625 6C7.625 6.43098 7.45379 6.8443 7.14905 7.14905C6.8443 7.45379 6.43098 7.625 6 7.625C5.56902 7.625 5.1557 7.45379 4.85095 7.14905C4.54621 6.8443 4.375 6.43098 4.375 6Z" fill="#A8AAAD"/>
<path fill-rule="evenodd" clip-rule="evenodd" d="M8.62903 1.41652C6.88171 1.22281 5.11834 1.22281 3.37103 1.41652C2.36503 1.52902 1.55253 2.32152 1.43453 3.33252C1.22723 5.10481 1.22723 6.89522 1.43453 8.66752C1.55253 9.67852 2.36453 10.471 3.37103 10.5835C5.11835 10.777 6.8817 10.777 8.62903 10.5835C9.63503 10.471 10.4475 9.67852 10.5655 8.66752C10.7729 6.89523 10.7729 5.10481 10.5655 3.33252C10.4475 2.32152 9.63553 1.52902 8.62903 1.41652ZM3.45403 2.16152C5.14618 1.97395 6.85388 1.97395 8.54603 2.16152C9.21103 2.23652 9.74353 2.76102 9.82103 3.42002C10.0215 5.13418 10.0215 6.86586 9.82103 8.58002C9.78094 8.90254 9.6333 9.20213 9.40195 9.43039C9.1706 9.65866 8.86906 9.80226 8.54603 9.83802C6.85388 10.0256 5.14618 10.0256 3.45403 9.83802C3.131 9.80226 2.82945 9.65866 2.59811 9.43039C2.36676 9.20213 2.21911 8.90254 2.17903 8.58002C1.97855 6.86586 1.97855 5.13418 2.17903 3.42002C2.21911 3.0975 2.36676 2.79791 2.59811 2.56964C2.82945 2.34138 3.131 2.19727 3.45403 2.16152Z" fill="#A8AAAD"/>
</svg>
